<svg xmlns="http://www.w3.org/2000/svg" xmlns:xlink="http://www.w3.org/1999/xlink" version="1.1" x="0px" y="0px" viewBox="0 0 90 112.5" enable-background="new 0 0 90 90" xml:space="preserve"><path d="M64.716,32.039l2.682,2.703l0.011,0.011c0.624,0.351,1.192,0.733,1.718,1.149l0.854-1.072  C68.557,33.703,66.783,32.772,64.716,32.039z M56.541,23.799l2.736,2.757l0.011,0.011c0.7,0.405,1.346,0.854,1.915,1.346l0.886-1.04  C60.634,25.615,58.752,24.587,56.541,23.799z M48.355,15.537l2.834,2.867c0.941,0.559,1.763,1.193,2.441,1.893l0.973-0.963  C53.061,17.758,50.949,16.478,48.355,15.537z M34.304,71.829V71.6l-1.357-1.357v1.686c0.011,0.055,0.077,0.536,0.339,1.115  l1.248-0.568C34.37,72.124,34.315,71.829,34.304,71.829z M26.02,63.545v-0.263l-1.357-1.368v1.729c0,0.044,0.066,0.481,0.296,1.019  l1.258-0.537C26.075,63.808,26.031,63.545,26.02,63.545z M17.736,55.25v-0.295l-1.357-1.368v1.773c0,0.043,0.055,0.426,0.252,0.919  l1.269-0.504C17.791,55.479,17.748,55.25,17.736,55.25z M48.355,15.537l-0.011-0.011c-3.448-1.248-7.748-1.915-12.65-1.915h-0.186  c-14.729,0-21.449,5.909-21.449,11.403c0,3.994,1.838,6.358,2.954,7.431c-0.656,0.81-0.656,2.21-0.646,2.473l0.011,18.67v1.773  c0,0.043,0.055,0.426,0.252,0.919l1.269-0.504c-0.109-0.296-0.153-0.525-0.164-0.525V34.896c-0.011-0.493,0.098-1.347,0.361-1.62  c0.044-0.043,0.066-0.043,0.11-0.043c0.306,0,0.569-0.208,0.657-0.493c0.087-0.295-0.033-0.602-0.285-0.766  c-0.131-0.087-3.151-2.134-3.151-6.96c0-6.588,10.101-10.035,20.081-10.035h0.186c6.435,0,11.874,1.214,15.495,3.425  c0.941,0.559,1.763,1.193,2.441,1.893l0.973-0.963C53.061,17.758,50.949,16.478,48.355,15.537z M56.541,23.799  c-3.447-1.248-7.727-1.905-12.552-1.905h-0.197c-14.729,0-21.438,5.91-21.438,11.403c0,3.995,1.838,6.358,2.944,7.431  c-0.657,0.81-0.646,2.21-0.646,2.474l0.011,18.712v1.729c0,0.044,0.066,0.481,0.296,1.019l1.258-0.537  c-0.142-0.317-0.186-0.58-0.197-0.58V43.18c-0.011-0.503,0.109-1.346,0.361-1.62c0.043-0.044,0.065-0.044,0.109-0.044  c0.307,0,0.569-0.197,0.657-0.493c0.087-0.284-0.033-0.602-0.285-0.766c-0.12-0.087-3.141-2.134-3.141-6.96  c0-6.588,10.089-10.035,20.07-10.035h0.197c6.348,0,11.665,1.16,15.288,3.294l0.011,0.011c0.7,0.405,1.346,0.854,1.915,1.346  l0.886-1.04C60.634,25.615,58.752,24.587,56.541,23.799z M64.716,32.039c-3.447-1.214-7.683-1.86-12.442-1.86h-0.197  c-14.73,0-21.438,5.909-21.438,11.403c0,3.994,1.839,6.369,2.944,7.431c-0.657,0.81-0.646,2.21-0.646,2.474l0.011,18.756v1.686  c0.011,0.055,0.077,0.536,0.339,1.115l1.248-0.568c-0.164-0.351-0.219-0.646-0.23-0.646V51.475c-0.011-0.515,0.11-1.356,0.372-1.619  c0.033-0.044,0.066-0.055,0.098-0.055c0.307,0,0.569-0.198,0.657-0.493c0.088-0.284-0.022-0.603-0.273-0.767  c-0.131-0.087-3.151-2.133-3.151-6.959c0-6.588,10.101-10.035,20.07-10.035h0.197c6.227,0,11.501,1.127,15.124,3.195l0.011,0.011  c0.624,0.351,1.192,0.733,1.718,1.149l0.854-1.072C68.557,33.703,66.783,32.772,64.716,32.039z M64.716,32.039  c-3.447-1.214-7.683-1.86-12.442-1.86h-0.197c-14.73,0-21.438,5.909-21.438,11.403c0,3.994,1.839,6.369,2.944,7.431  c-0.657,0.81-0.646,2.21-0.646,2.474l0.011,18.756v1.686c0.011,0.055,0.077,0.536,0.339,1.115l1.248-0.568  c-0.164-0.351-0.219-0.646-0.23-0.646V51.475c-0.011-0.515,0.11-1.356,0.372-1.619c0.033-0.044,0.066-0.055,0.098-0.055  c0.307,0,0.569-0.198,0.657-0.493c0.088-0.284-0.022-0.603-0.273-0.767c-0.131-0.087-3.151-2.133-3.151-6.959  c0-6.588,10.101-10.035,20.07-10.035h0.197c6.227,0,11.501,1.127,15.124,3.195l0.011,0.011c0.624,0.351,1.192,0.733,1.718,1.149  l0.854-1.072C68.557,33.703,66.783,32.772,64.716,32.039z M26.863,40.258c-0.12-0.087-3.141-2.134-3.141-6.96  c0-6.588,10.089-10.035,20.07-10.035h0.197c6.348,0,11.665,1.16,15.288,3.294l0.011,0.011c0.7,0.405,1.346,0.854,1.915,1.346  l0.886-1.04c-1.455-1.259-3.337-2.287-5.548-3.075c-3.447-1.248-7.727-1.905-12.552-1.905h-0.197  c-14.729,0-21.438,5.91-21.438,11.403c0,3.995,1.838,6.358,2.944,7.431c-0.657,0.81-0.646,2.21-0.646,2.474l0.011,18.712v1.729  c0,0.044,0.066,0.481,0.296,1.019l1.258-0.537c-0.142-0.317-0.186-0.58-0.197-0.58V43.18c-0.011-0.503,0.109-1.346,0.361-1.62  c0.043-0.044,0.065-0.044,0.109-0.044c0.307,0,0.569-0.197,0.657-0.493C27.235,40.739,27.114,40.422,26.863,40.258z M18.579,31.974  c-0.131-0.087-3.151-2.134-3.151-6.96c0-6.588,10.101-10.035,20.081-10.035h0.186c6.435,0,11.874,1.214,15.495,3.425  c0.941,0.559,1.763,1.193,2.441,1.893l0.973-0.963c-1.543-1.576-3.654-2.856-6.248-3.797l-0.011-0.011  c-3.448-1.248-7.748-1.915-12.65-1.915h-0.186c-14.729,0-21.449,5.909-21.449,11.403c0,3.994,1.838,6.358,2.954,7.431  c-0.656,0.81-0.656,2.21-0.646,2.473l0.011,18.67v1.773c0,0.043,0.055,0.426,0.252,0.919l1.269-0.504  c-0.109-0.296-0.153-0.525-0.164-0.525V34.896c-0.011-0.493,0.098-1.347,0.361-1.62c0.044-0.043,0.066-0.043,0.11-0.043  c0.306,0,0.569-0.208,0.657-0.493C18.951,32.444,18.831,32.138,18.579,31.974z M83.319,50.643c0-2.648-1.478-5.395-4.586-7.562  l-0.021-0.021L46.451,10.514l-0.316-0.251c-3.864-3.108-10.276-4.826-18.057-4.826h-0.186c-15.014,0-21.854,6.128-21.854,11.819  c0,3.852,1.652,6.259,2.834,7.475c-0.536,0.919-0.536,2.177-0.536,2.429v20.354c0,0.045,0.011,0.087,0.011,0.132  c0.109,0.854,0.701,2.44,2.244,3.217l31.888,32.064c0.635,0.941,1.751,1.783,3.534,1.783H76.73c3.021,0,4.116-2.408,4.269-3.676  c0.011-0.044,0.011-0.088,0.011-0.132V60.579c0.011-0.284,0.011-1.543-0.524-2.462C81.655,56.892,83.319,54.483,83.319,50.643z   M33.287,73.043c-0.263-0.579-0.328-1.061-0.339-1.115v-1.686l-6.927-6.96v0.263c0.011,0,0.055,0.263,0.197,0.58l-1.258,0.537  c-0.23-0.537-0.296-0.975-0.296-1.019v-1.729l-6.927-6.959v0.295c0.011,0,0.055,0.229,0.164,0.525l-1.269,0.504  c-0.197-0.493-0.252-0.876-0.252-0.919v-1.773l-4.367-4.388l-0.076-0.077c-0.088-0.066-0.175-0.132-0.285-0.175  c-0.854-0.373-1.083-1.303-1.127-1.522V27.126c-0.011-0.449,0.087-1.029,0.208-1.258c0.427-0.055,0.777-0.351,0.909-0.777  c0.131-0.46-0.055-0.963-0.459-1.226c-0.033-0.022-2.955-1.97-2.955-6.61c0-4.782,6.752-9.63,19.665-9.63h0.186  c7.288,0,13.208,1.543,16.667,4.323l0.219,0.175l3.382,3.403l0.011,0.011c2.594,0.941,4.705,2.222,6.248,3.797l-0.973,0.963  c-0.679-0.7-1.5-1.334-2.441-1.893l5.352,5.396c2.211,0.788,4.093,1.816,5.548,3.075l-0.886,1.04  c-0.569-0.492-1.215-0.941-1.915-1.346l5.428,5.472c2.067,0.733,3.841,1.664,5.264,2.791l-0.854,1.072  c-0.525-0.416-1.094-0.799-1.718-1.149l5.548,5.603c-3.097-0.963-6.905-1.532-11.49-1.532H61.28  c-15.026,0-21.865,6.128-21.865,11.818c0,3.841,1.663,6.26,2.834,7.475c-0.536,0.919-0.525,2.178-0.525,2.429v18.517L34.304,71.6  v0.229c0.011,0,0.066,0.295,0.23,0.646L33.287,73.043z M78.165,57.253c-0.405,0.263-0.591,0.766-0.449,1.226  c0.121,0.426,0.482,0.723,0.909,0.776c0.108,0.23,0.207,0.811,0.196,1.291v20.268c-0.065,0.394-0.427,1.707-2.091,1.707H46.013  c-1.673,0-2.035-1.335-2.1-1.707v-20.3c-0.011-0.459,0.087-1.028,0.208-1.259c0.427-0.054,0.777-0.351,0.909-0.776  c0.131-0.46-0.055-0.963-0.46-1.226c-0.032-0.021-2.965-1.97-2.965-6.61c0-4.782,6.763-9.63,19.677-9.63h0.186  c12.913,0,19.665,4.848,19.665,9.63C81.131,55.229,78.285,57.176,78.165,57.253z"/><text x="0" y="105" fill="#000000" font-size="5px" font-weight="bold" font-family="'Helvetica Neue', Helvetica, Arial-Unicode, Arial, Sans-serif">Created by Katie Wright</text><text x="0" y="110" fill="#000000" font-size="5px" font-weight="bold" font-family="'Helvetica Neue', Helvetica, Arial-Unicode, Arial, Sans-serif">from the Noun Project</text></svg>