<svg xmlns="http://www.w3.org/2000/svg" xmlns:xlink="http://www.w3.org/1999/xlink" version="1.1" x="0px" y="0px" viewBox="0 0 90 112.5" enable-background="new 0 0 90 90" xml:space="preserve"><path d="M36.909,19.75c-1.431-3.11-6.03-11.835-13.893-14.85c-4.375-1.68-9.021-1.312-13.822,1.087  C8.639,6.271,8.39,6.934,8.639,7.513l1.513,3.558c0.13,0.308,0.378,0.533,0.686,0.65c0.295,0.107,0.638,0.095,0.934-0.046  c0.047-0.023,5.084-2.436,9.932,0.083c4.399,2.282,9.151,10.452,10.322,12.545c0.167,0.308,0.261,0.485,0.272,0.496l2.093-1.111  c-0.059-0.106-0.39-0.721-0.935-1.667c-1.879-3.205-6.254-10.086-10.665-12.368c-4.422-2.294-8.868-1.276-10.914-0.567L11.263,7.63  c3.808-1.655,7.472-1.832,10.889-0.531c7.047,2.695,11.363,10.96,12.64,13.715c0.249,0.556,0.379,0.887,0.391,0.898l2.199-0.863  C37.347,20.768,37.181,20.365,36.909,19.75z M25.061,22.434l-0.059,0.202l2.235,0.756c0.036-0.095,0.07-0.189,0.094-0.296  L25.061,22.434z M47.408,46.354l-0.012,0.248c0,0.059-0.012,0.131-0.012,0.189c-0.105,1.42-0.744,2.719-1.797,3.665  c-0.153,0.143-0.331,0.283-0.508,0.414l1.384,1.927c0.461-0.331,0.875-0.708,1.229-1.11c0.567-0.604,1.018-1.289,1.36-2.034  c0.425-0.91,0.674-1.916,0.709-2.956c0-0.083,0.012-0.165,0.012-0.248v-0.095H47.408z M39.664,41.246  c0.177-0.083,0.354-0.142,0.532-0.201l-0.709-2.258c-0.567,0.177-1.1,0.414-1.608,0.709c-1.431,0.816-2.578,2.081-3.252,3.606  c-0.107,0.225-0.201,0.473-0.284,0.71c-0.189,0.556-0.319,1.135-0.377,1.726c-0.036,0.271-0.048,0.544-0.048,0.815  c0,2.437,1.1,4.683,2.956,6.159c0.426,0.355,0.887,0.65,1.383,0.898l1.064-2.104c-0.189-0.094-0.367-0.2-0.543-0.331  c-1.549-1.005-2.495-2.73-2.495-4.623c0-0.614,0.106-1.218,0.295-1.785C37.086,43.066,38.222,41.849,39.664,41.246z M35.183,42.984  c-0.177,0.048-0.366,0.095-0.556,0.118c-0.378,0.059-0.78,0.083-1.171,0.059c-0.414-0.012-0.815-0.083-1.206-0.188l-0.639,2.282  c0.32,0.082,0.639,0.153,0.97,0.2c0.378,0.059,0.769,0.083,1.159,0.083h0.225c0.615-0.024,1.229-0.107,1.82-0.272L35.183,42.984z   M35.916,54.713c-0.177,0.06-0.366,0.106-0.544,0.154c-0.401,0.083-0.804,0.13-1.206,0.13c-3.074,0-5.558-2.495-5.558-5.569  c0-0.165,0.012-0.342,0.024-0.52c0.023-0.213,0.047-0.427,0.095-0.64l-0.331-0.07l-0.828-0.178l-1.159-0.248  c-0.035,0.201-0.071,0.402-0.083,0.614c-0.059,0.343-0.083,0.699-0.083,1.041c0,0.013,0,0.013,0,0.023  c0,1.632,0.508,3.157,1.359,4.423c1.419,2.092,3.819,3.476,6.539,3.488c0.012,0,0.012,0,0.024,0c0.213,0,0.438-0.013,0.65-0.024  c0.39-0.036,0.78-0.106,1.158-0.189c0.237-0.059,0.45-0.118,0.674-0.189L35.916,54.713z M30.394,35.181  c-0.686-0.533-1.454-0.923-2.294-1.195c-0.757-0.236-1.561-0.366-2.4-0.366c-1.17,0-2.282,0.249-3.276,0.722  c-0.649,0.284-1.253,0.663-1.797,1.123c-0.118,0.094-0.236,0.201-0.354,0.319c-0.462,0.438-0.888,0.934-1.23,1.478  c-0.804,1.23-1.265,2.708-1.265,4.292c0,1.171,0.26,2.281,0.732,3.286c0.32,0.733,0.757,1.396,1.301,1.987  c1.431,1.619,3.547,2.649,5.889,2.649c0.166,0,0.343,0,0.508-0.025c0.011,0.012,0.024,0.012,0.036,0  c0.804-0.047,1.572-0.224,2.282-0.508c0.036,0,0.071-0.011,0.106-0.035c1.679-0.662,3.074-1.892,3.949-3.453  c0.414-0.708,0.709-1.478,0.875-2.294c0.106-0.52,0.166-1.064,0.166-1.607C33.622,38.929,32.345,36.611,30.394,35.181z M25.7,47.11  c-3.062,0-5.557-2.495-5.557-5.557c0-3.075,2.495-5.57,5.557-5.57s5.557,2.495,5.557,5.57C31.257,44.616,28.763,47.11,25.7,47.11z   M63.619,60.708c-0.391-1.053-1.005-1.987-1.773-2.768c-1.442-1.465-3.442-2.352-5.64-2.352c-0.071,0-0.131,0-0.201,0.012  c-2.069,0.047-3.974,0.886-5.368,2.27c-0.757,0.733-1.36,1.619-1.762,2.613c-0.153,0.354-0.272,0.732-0.366,1.112l1.027,0.26  l1.266,0.307c0.084-0.332,0.189-0.65,0.331-0.957c0.887-1.951,2.85-3.252,5.073-3.252c2.435,0,4.528,1.56,5.261,3.807  c0.096,0.237,0.153,0.497,0.202,0.757l2.328-0.413C63.914,61.618,63.784,61.158,63.619,60.708z M68.939,53.13  c-0.308-0.237-0.639-0.45-0.981-0.628l-1.111,2.093c0.296,0.154,0.58,0.342,0.84,0.556c1.324,1.041,2.117,2.637,2.117,4.352  c0,0.591-0.096,1.17-0.273,1.726c-0.129,0.391-0.295,0.756-0.508,1.112l2.033,1.205c0.166-0.283,0.319-0.58,0.449-0.875  c0.438-0.993,0.663-2.069,0.663-3.168C72.168,56.959,70.961,54.606,68.939,53.13z M47.692,51.687  c0.567-0.604,1.018-1.289,1.36-2.034c-0.758-0.815-1.324-1.785-1.668-2.861c-0.105,1.42-0.744,2.719-1.797,3.665  c-0.887-0.354-1.856-0.543-2.873-0.543c-1.431,0-2.778,0.378-3.937,1.063c-0.721,0.402-1.36,0.923-1.904,1.536  c-0.639,0.687-1.147,1.479-1.502,2.354c-0.308,0.744-0.496,1.536-0.555,2.364c0.378-0.07,0.768-0.095,1.158-0.095v2.365  c-0.331,0-0.662,0.036-0.981,0.094c0.615,2.72,2.625,4.908,5.238,5.771c0.189-0.52,0.449-1.017,0.769-1.489l1.963,1.324  c-0.118,0.177-0.237,0.365-0.32,0.566h0.071c2.459,0,4.659-1.123,6.101-2.884c-0.213-0.059-0.438-0.095-0.662-0.119  c-0.188-0.023-0.378-0.034-0.567-0.034v-2.212c-0.945,1.715-2.779,2.885-4.872,2.885c-3.062,0-5.557-2.494-5.557-5.568  c0-3.062,2.495-5.558,5.557-5.558c3.062,0,5.558,2.495,5.558,5.558c0,0.91-0.226,1.773-0.616,2.53c0.248,0,0.497,0.022,0.733,0.048  c0.166,0.011,0.32,0.034,0.485,0.07c0.401-0.994,1.005-1.88,1.762-2.613v-0.035C50.637,55.352,49.489,53.13,47.692,51.687z   M62.519,42.145c-0.284-0.036-0.566-0.048-0.863-0.048v2.365c0.403,0,0.793,0.047,1.172,0.129c2.506,0.533,4.386,2.768,4.386,5.428  c0,3.074-2.482,5.569-5.558,5.569c-2.317,0-4.314-1.407-5.154-3.478c-0.153-0.378-0.26-0.78-0.331-1.205l-2.329,0.377  c0.048,0.32,0.118,0.639,0.212,0.946c0.355,1.302,1.041,2.447,1.952,3.371c1.442,1.466,3.452,2.353,5.65,2.353  c0.061,0,0.131,0,0.19-0.013c2.341-0.048,4.433-1.122,5.841-2.79c0.519-0.603,0.945-1.276,1.253-2.021  c0.414-0.959,0.638-2.011,0.638-3.11C69.577,45.951,66.492,42.569,62.519,42.145z M47.692,51.687  c0.567-0.604,1.018-1.289,1.36-2.034c-0.758-0.815-1.324-1.785-1.668-2.861c-0.105,1.42-0.744,2.719-1.797,3.665  c-0.887-0.354-1.856-0.543-2.873-0.543c-1.431,0-2.778,0.378-3.937,1.063c-0.721,0.402-1.36,0.923-1.904,1.536  c-0.639,0.687-1.147,1.479-1.502,2.354c-0.308,0.744-0.496,1.536-0.555,2.364c0.378-0.07,0.768-0.095,1.158-0.095v2.365  c-0.331,0-0.662,0.036-0.981,0.094c0.615,2.72,2.625,4.908,5.238,5.771c0.189-0.52,0.449-1.017,0.769-1.489l1.963,1.324  c-0.118,0.177-0.237,0.365-0.32,0.566h0.071c2.459,0,4.659-1.123,6.101-2.884c-0.213-0.059-0.438-0.095-0.662-0.119  c-0.188-0.023-0.378-0.034-0.567-0.034v-2.212c-0.945,1.715-2.779,2.885-4.872,2.885c-3.062,0-5.557-2.494-5.557-5.568  c0-3.062,2.495-5.558,5.557-5.558c3.062,0,5.558,2.495,5.558,5.558c0,0.91-0.226,1.773-0.616,2.53c0.248,0,0.497,0.022,0.733,0.048  c0.166,0.011,0.32,0.034,0.485,0.07c0.401-0.994,1.005-1.88,1.762-2.613v-0.035C50.637,55.352,49.489,53.13,47.692,51.687z   M47.692,51.687c0.567-0.604,1.018-1.289,1.36-2.034c-0.758-0.815-1.324-1.785-1.668-2.861c-0.105,1.42-0.744,2.719-1.797,3.665  c-0.887-0.354-1.856-0.543-2.873-0.543c-1.431,0-2.778,0.378-3.937,1.063c-0.721,0.402-1.36,0.923-1.904,1.536  c-0.639,0.687-1.147,1.479-1.502,2.354c-0.308,0.744-0.496,1.536-0.555,2.364c0.378-0.07,0.768-0.095,1.158-0.095v2.365  c-0.331,0-0.662,0.036-0.981,0.094c0.615,2.72,2.625,4.908,5.238,5.771c0.189-0.52,0.449-1.017,0.769-1.489l1.963,1.324  c-0.118,0.177-0.237,0.365-0.32,0.566h0.071c2.459,0,4.659-1.123,6.101-2.884c-0.213-0.059-0.438-0.095-0.662-0.119  c-0.188-0.023-0.378-0.034-0.567-0.034v-2.212c-0.945,1.715-2.779,2.885-4.872,2.885c-3.062,0-5.557-2.494-5.557-5.568  c0-3.062,2.495-5.558,5.557-5.558c3.062,0,5.558,2.495,5.558,5.558c0,0.91-0.226,1.773-0.616,2.53c0.248,0,0.497,0.022,0.733,0.048  c0.166,0.011,0.32,0.034,0.485,0.07c0.401-0.994,1.005-1.88,1.762-2.613v-0.035C50.637,55.352,49.489,53.13,47.692,51.687z   M49.738,46.354c0.012,0.035,0.023,0.059,0.035,0.095v-0.095H49.738z M36.283,46.354c0-0.614,0.106-1.218,0.295-1.785  c0.508-1.502,1.644-2.719,3.086-3.323c-0.698-0.473-1.301-1.076-1.785-1.75c-1.431,0.816-2.578,2.081-3.252,3.606  c-0.107,0.225-0.201,0.473-0.284,0.71c-0.189,0.556-0.319,1.135-0.377,1.726c-0.036,0.271-0.048,0.544-0.048,0.815  c0,2.437,1.1,4.683,2.956,6.159c0.544-0.613,1.183-1.134,1.904-1.536C37.228,49.972,36.283,48.246,36.283,46.354z M62.519,42.145  c-0.484-1.668-1.501-3.11-2.85-4.104c-0.626-0.497-1.335-0.875-2.091-1.135c-0.828-0.308-1.727-0.473-2.661-0.473  c-1.088,0-2.13,0.225-3.075,0.626c-2.175,0.923-3.854,2.779-4.516,5.06c-0.226,0.71-0.332,1.455-0.332,2.236  c0,0.851,0.13,1.667,0.391,2.435c0.344,1.076,0.91,2.046,1.668,2.861c1.24,1.407,3.015,2.365,5,2.577  c0.284,0.036,0.568,0.048,0.864,0.048c0.544,0,1.075-0.06,1.584-0.166c3.536-0.708,6.22-3.796,6.326-7.52  c0.011-0.082,0.011-0.154,0.011-0.235C62.838,43.587,62.731,42.842,62.519,42.145z M54.917,49.913c-2.317,0-4.315-1.432-5.144-3.465  v-0.095h-0.035c-0.249-0.627-0.379-1.3-0.379-1.998c0-3.062,2.494-5.557,5.558-5.557c3.062,0,5.557,2.495,5.557,5.557  C60.474,47.418,57.979,49.913,54.917,49.913z M39.664,41.246c-0.698-0.473-1.301-1.076-1.785-1.75  c-1.431,0.816-2.578,2.081-3.252,3.606c-0.107,0.225-0.201,0.473-0.284,0.71c-0.189,0.556-0.319,1.135-0.377,1.726  c-0.036,0.271-0.048,0.544-0.048,0.815c0,2.437,1.1,4.683,2.956,6.159c0.544-0.613,1.183-1.134,1.904-1.536  c-1.549-1.005-2.495-2.73-2.495-4.623c0-0.614,0.106-1.218,0.295-1.785C37.086,43.066,38.222,41.849,39.664,41.246z M36.283,46.354  c0-0.614,0.106-1.218,0.295-1.785c0.508-1.502,1.644-2.719,3.086-3.323c-0.698-0.473-1.301-1.076-1.785-1.75  c-1.431,0.816-2.578,2.081-3.252,3.606c-0.107,0.225-0.201,0.473-0.284,0.71c-0.189,0.556-0.319,1.135-0.377,1.726  c-0.036,0.271-0.048,0.544-0.048,0.815c0,2.437,1.1,4.683,2.956,6.159c0.544-0.613,1.183-1.134,1.904-1.536  C37.228,49.972,36.283,48.246,36.283,46.354z M52.835,26.099c-1.796,0-3.499,0.591-4.895,1.691  c-0.248,0.188-0.484,0.402-0.709,0.626l1.679,1.667c0.308-0.308,0.65-0.58,1.017-0.792c0.863-0.543,1.868-0.828,2.908-0.828  c3.075,0,5.558,2.495,5.558,5.558c0,1.028-0.284,2.021-0.814,2.885c-0.131,0.248-0.297,0.473-0.486,0.697l1.81,1.514  c0.283-0.331,0.544-0.698,0.768-1.076c0.711-1.206,1.089-2.601,1.089-4.02C60.758,29.647,57.21,26.099,52.835,26.099z   M33.456,43.161c0.106-0.52,0.166-1.064,0.166-1.607c0-2.625-1.277-4.942-3.228-6.373c-0.473,0.449-1.005,0.839-1.585,1.159  l-1.146-2.07c0.154-0.083,0.295-0.177,0.438-0.284c-0.757-0.236-1.561-0.366-2.4-0.366c-1.17,0-2.282,0.249-3.276,0.722  c0.154,0.083,0.309,0.154,0.462,0.212l-0.899,2.188c-0.201-0.083-0.401-0.177-0.603-0.271c0.048,0.059,0.083,0.118,0.119,0.177  l-2.022,1.229c-0.131-0.212-0.272-0.426-0.438-0.615c-0.804,1.23-1.265,2.708-1.265,4.292c0,1.171,0.26,2.281,0.732,3.286  c0.178-0.165,0.355-0.354,0.509-0.544l1.832,1.502c-0.319,0.379-0.661,0.733-1.04,1.029c1.431,1.619,3.547,2.649,5.889,2.649  c0.166,0,0.343,0,0.508-0.025c-0.036-0.331-0.095-0.661-0.189-0.98l0.308-0.084l1.242-0.366l0.828,0.178  c0.059,0.248,0.106,0.497,0.13,0.745c0.036,0,0.071-0.011,0.106-0.035c1.679-0.662,3.074-1.892,3.949-3.453  c0.378,0.059,0.769,0.083,1.159,0.083h0.225c0.059-0.591,0.188-1.17,0.377-1.726c0.083-0.237,0.177-0.485,0.284-0.71  C34.249,43.161,33.847,43.185,33.456,43.161z M25.7,47.11c-3.062,0-5.557-2.495-5.557-5.557c0-3.075,2.495-5.57,5.557-5.57  s5.557,2.495,5.557,5.57C31.257,44.616,28.763,47.11,25.7,47.11z M49.927,29.292c-0.556-0.603-1.23-1.111-1.986-1.501  c-0.212-0.119-0.438-0.225-0.674-0.319c-0.296-0.13-0.614-0.237-0.935-0.319l-0.626,2.293c0.401,0.106,0.78,0.261,1.122,0.449  c1.81,0.935,2.98,2.814,2.98,4.907c0,3.074-2.495,5.569-5.558,5.569c-2.932,0-5.344-2.294-5.545-5.19  c-0.012-0.119-0.012-0.249-0.012-0.379c0-0.284,0.023-0.568,0.059-0.84l-2.329-0.354c-0.048,0.331-0.083,0.662-0.083,0.993  c-0.012,0.071-0.012,0.131-0.012,0.201c0,1.75,0.568,3.382,1.549,4.694c0.484,0.674,1.087,1.277,1.785,1.75  c1.289,0.946,2.885,1.49,4.587,1.49c1.088,0,2.128-0.225,3.075-0.616c2.163-0.922,3.842-2.778,4.516-5.06  c0.214-0.709,0.331-1.478,0.331-2.258C52.173,32.697,51.334,30.734,49.927,29.292z M33.456,43.161  c0.106-0.52,0.166-1.064,0.166-1.607c0-2.625-1.277-4.942-3.228-6.373c-0.473,0.449-1.005,0.839-1.585,1.159l-1.146-2.07  c0.154-0.083,0.295-0.177,0.438-0.284c-0.757-0.236-1.561-0.366-2.4-0.366c-1.17,0-2.282,0.249-3.276,0.722  c0.154,0.083,0.309,0.154,0.462,0.212l-0.899,2.188c-0.201-0.083-0.401-0.177-0.603-0.271c0.048,0.059,0.083,0.118,0.119,0.177  l-2.022,1.229c-0.131-0.212-0.272-0.426-0.438-0.615c-0.804,1.23-1.265,2.708-1.265,4.292c0,1.171,0.26,2.281,0.732,3.286  c0.178-0.165,0.355-0.354,0.509-0.544l1.832,1.502c-0.319,0.379-0.661,0.733-1.04,1.029c1.431,1.619,3.547,2.649,5.889,2.649  c0.166,0,0.343,0,0.508-0.025c-0.036-0.331-0.095-0.661-0.189-0.98l0.308-0.084l1.242-0.366l0.828,0.178  c0.059,0.248,0.106,0.497,0.13,0.745c0.036,0,0.071-0.011,0.106-0.035c1.679-0.662,3.074-1.892,3.949-3.453  c0.378,0.059,0.769,0.083,1.159,0.083h0.225c0.059-0.591,0.188-1.17,0.377-1.726c0.083-0.237,0.177-0.485,0.284-0.71  C34.249,43.161,33.847,43.185,33.456,43.161z M25.7,47.11c-3.062,0-5.557-2.495-5.557-5.557c0-3.075,2.495-5.57,5.557-5.57  s5.557,2.495,5.557,5.57C31.257,44.616,28.763,47.11,25.7,47.11z M33.456,43.161c0.106-0.52,0.166-1.064,0.166-1.607  c0-2.625-1.277-4.942-3.228-6.373c-0.473,0.449-1.005,0.839-1.585,1.159l-1.146-2.07c0.154-0.083,0.295-0.177,0.438-0.284  c-0.757-0.236-1.561-0.366-2.4-0.366c-1.17,0-2.282,0.249-3.276,0.722c0.154,0.083,0.309,0.154,0.462,0.212l-0.899,2.188  c-0.201-0.083-0.401-0.177-0.603-0.271c0.048,0.059,0.083,0.118,0.119,0.177l-2.022,1.229c-0.131-0.212-0.272-0.426-0.438-0.615  c-0.804,1.23-1.265,2.708-1.265,4.292c0,1.171,0.26,2.281,0.732,3.286c0.178-0.165,0.355-0.354,0.509-0.544l1.832,1.502  c-0.319,0.379-0.661,0.733-1.04,1.029c1.431,1.619,3.547,2.649,5.889,2.649c0.166,0,0.343,0,0.508-0.025  c-0.036-0.331-0.095-0.661-0.189-0.98l0.308-0.084l1.242-0.366l0.828,0.178c0.059,0.248,0.106,0.497,0.13,0.745  c0.036,0,0.071-0.011,0.106-0.035c1.679-0.662,3.074-1.892,3.949-3.453c0.378,0.059,0.769,0.083,1.159,0.083h0.225  c0.059-0.591,0.188-1.17,0.377-1.726c0.083-0.237,0.177-0.485,0.284-0.71C34.249,43.161,33.847,43.185,33.456,43.161z M25.7,47.11  c-3.062,0-5.557-2.495-5.557-5.557c0-3.075,2.495-5.57,5.557-5.57s5.557,2.495,5.557,5.57C31.257,44.616,28.763,47.11,25.7,47.11z   M39.357,19.36c-0.852,0-1.68,0.13-2.448,0.39c-0.768,0.248-1.478,0.604-2.117,1.064c-0.496,0.354-0.958,0.756-1.336,1.206  c-0.615,0.662-1.099,1.442-1.431,2.282c-0.13,0.308-0.236,0.627-0.319,0.946c-0.177,0.65-0.272,1.336-0.272,2.034  c0,1.502,0.425,2.933,1.194,4.162c0.864,1.396,2.14,2.518,3.713,3.157c0.107,0.047,0.201,0.095,0.308,0.131l0.13,0.046  c0.626,0.213,1.265,0.343,1.927,0.403c0.213,0.011,0.438,0.023,0.651,0.023c3.452,0,6.397-2.223,7.471-5.31  c0.272-0.756,0.426-1.572,0.438-2.423c0.013-0.06,0.013-0.13,0.013-0.189C47.279,22.907,43.731,19.36,39.357,19.36z M39.357,32.839  c-0.627,0-1.23-0.107-1.904-0.332c-2.187-0.804-3.653-2.896-3.653-5.226c0-3.074,2.495-5.557,5.558-5.557  c3.062,0,5.557,2.482,5.557,5.557C44.914,30.344,42.419,32.839,39.357,32.839z M31.707,25.248c-1.383-2.258-3.878-3.771-6.728-3.771  c-4.375,0-7.934,3.547-7.934,7.922c0,1.561,0.449,3.027,1.253,4.28c0.508,0.816,1.183,1.525,1.975,2.104  c0.342,0.26,0.721,0.485,1.111,0.686c0.201,0.094,0.402,0.189,0.603,0.271l0.899-2.188c-0.153-0.059-0.308-0.129-0.462-0.212  c-1.855-0.958-3.014-2.838-3.014-4.942c0-3.062,2.495-5.557,5.569-5.557c3.062,0,5.557,2.495,5.557,5.557  c0,1.845-0.922,3.571-2.436,4.587c-0.142,0.107-0.284,0.202-0.438,0.284l1.146,2.07c0.58-0.319,1.112-0.71,1.585-1.159  c1.076-1.005,1.856-2.306,2.234-3.737c0.178-0.663,0.272-1.348,0.272-2.045C32.901,27.873,32.475,26.455,31.707,25.248z   M18.511,44.84c-1.017,0.946-2.365,1.478-3.783,1.478c-3.063,0-5.557-2.494-5.557-5.557c0-3.062,2.494-5.557,5.557-5.557  c1.714,0,3.275,0.756,4.316,2.057c0.166,0.189,0.307,0.402,0.438,0.615l2.022-1.229c-0.036-0.06-0.071-0.118-0.119-0.177  c-0.224-0.355-0.473-0.698-0.757-1.005c-0.663-0.745-1.454-1.348-2.329-1.785c-1.087-0.544-2.306-0.839-3.571-0.839  c-4.363,0-7.922,3.547-7.922,7.921c0,3.737,2.613,6.882,6.101,7.697c0.579,0.154,1.194,0.225,1.821,0.225  c0.189,0,0.378-0.012,0.567-0.023c1.667-0.117,3.24-0.756,4.517-1.832c0.379-0.296,0.721-0.65,1.04-1.029l-1.832-1.502  C18.866,44.485,18.689,44.675,18.511,44.84z M25.7,57.137c-0.556,0-1.1,0.06-1.644,0.165c0.212,0.747,0.331,1.515,0.331,2.294v0.07  c1.703-0.412,3.559,0.025,4.907,1.172c0.414-0.674,0.934-1.289,1.549-1.797C29.413,57.812,27.604,57.137,25.7,57.137z   M34.166,54.997c-3.074,0-5.558-2.495-5.558-5.569c0-0.165,0.012-0.342,0.024-0.52c-0.035,0.024-0.071,0.035-0.106,0.035  c-0.023-0.248-0.071-0.497-0.13-0.745c-0.036-0.13-0.071-0.261-0.106-0.391l-0.721,0.213l-1.242,0.366l-0.308,0.084  c0.095,0.319,0.154,0.649,0.189,0.98c0.024,0.189,0.036,0.379,0.036,0.568c0,3.074-2.495,5.569-5.569,5.569  c-3.062,0-5.557-2.495-5.557-5.569c0-0.462,0.06-0.923,0.177-1.36c0.059-0.248,0.13-0.484,0.225-0.722l-2.188-0.887  c-0.177,0.462-0.319,0.923-0.426,1.407c-0.095,0.508-0.153,1.029-0.153,1.562c0,0.826,0.13,1.644,0.366,2.389  c0.237,0.769,0.591,1.477,1.053,2.115c1.419,2.069,3.808,3.43,6.503,3.43c0.355,0,0.721-0.024,1.064-0.083  c0.438-0.048,0.875-0.142,1.289-0.272c0.331-0.117,0.686-0.224,1.028-0.296c-0.012-0.034-0.024-0.059-0.036-0.094  c1.513-0.709,2.778-1.881,3.583-3.334c1.419,2.092,3.819,3.476,6.539,3.488c0.012,0,0.012,0,0.024,0  c0.213-0.071,0.425-0.107,0.65-0.131c0.059-0.828,0.248-1.62,0.555-2.364C34.97,54.95,34.568,54.997,34.166,54.997z M24.388,59.666  c1.703-0.412,3.559,0.025,4.907,1.172c0.414-0.674,0.934-1.289,1.549-1.797c-1.431-1.229-3.24-1.904-5.143-1.904  c-0.556,0-1.1,0.06-1.644,0.165c0.212,0.747,0.331,1.515,0.331,2.294V59.666z M25.7,57.137c-0.556,0-1.1,0.06-1.644,0.165  c0.212,0.747,0.331,1.515,0.331,2.294v0.07c1.703-0.412,3.559,0.025,4.907,1.172c0.414-0.674,0.934-1.289,1.549-1.797  C29.413,57.812,27.604,57.137,25.7,57.137z M24.057,57.302c-0.012-0.034-0.024-0.059-0.036-0.094  c-0.13-0.425-0.296-0.84-0.497-1.229l-2.105,1.088c0.13,0.261,0.249,0.52,0.32,0.804c0.189,0.544,0.284,1.124,0.284,1.726  c0,3.062-2.495,5.558-5.558,5.558c-3.062,0-5.557-2.495-5.557-5.558c0-2.199,1.301-4.185,3.263-5.072  c0.26-0.117,0.532-0.212,0.815-0.295l-0.626-2.271c-0.438,0.117-0.852,0.271-1.242,0.45c-2.754,1.287-4.575,4.078-4.575,7.188  c0,4.364,3.559,7.922,7.921,7.922c0.567,0,1.111-0.058,1.644-0.178c0.792-0.164,1.537-0.448,2.223-0.839  c2.401-1.348,4.032-3.901,4.056-6.835v-0.07C24.388,58.816,24.269,58.049,24.057,57.302z M29.933,68.653  c-0.201,0.236-0.414,0.449-0.639,0.639c-0.993,0.852-2.27,1.324-3.594,1.324c-2.554,0-4.742-1.714-5.368-4.115  c-0.071-0.26-0.119-0.52-0.154-0.792c-0.023-0.213-0.035-0.426-0.035-0.65h-2.365c0,0.308,0.011,0.614,0.047,0.923  c0.047,0.473,0.142,0.921,0.284,1.358c0.981,3.288,4.032,5.641,7.591,5.641c1.903,0,3.712-0.674,5.143-1.915  c0.319-0.248,0.615-0.544,0.898-0.875L29.933,68.653z M30.843,59.041c-1.431-1.229-3.24-1.904-5.143-1.904  c-0.556,0-1.1,0.06-1.644,0.165c-0.343,0.072-0.698,0.179-1.028,0.296c-0.107,0.036-0.201,0.071-0.308,0.118l0.887,2.188  c0.249-0.106,0.509-0.177,0.781-0.237c1.703-0.412,3.559,0.025,4.907,1.172c0.236,0.189,0.449,0.39,0.639,0.627l1.809-1.537  C31.458,59.596,31.163,59.301,30.843,59.041z M40.102,68.796c-0.119,0.142-0.261,0.271-0.391,0.39  c-1.017,0.91-2.353,1.431-3.736,1.431c-3.062,0-5.557-2.495-5.557-5.558c0-2.731,1.975-5.002,4.576-5.463  c0.319-0.058,0.65-0.094,0.981-0.094v-2.365c-0.39,0-0.78,0.024-1.158,0.095c-0.225,0.023-0.437,0.06-0.65,0.131  c-0.012,0-0.012,0-0.024,0c-1.23,0.282-2.364,0.862-3.299,1.679c-0.615,0.508-1.135,1.123-1.549,1.797  c-0.792,1.229-1.241,2.671-1.241,4.221c0,1.549,0.449,3.003,1.241,4.233c0.414,0.673,0.946,1.277,1.549,1.773  c1.383,1.206,3.181,1.915,5.131,1.915c1.596,0,3.134-0.484,4.434-1.371c0.521-0.332,1.005-0.758,1.443-1.23L40.102,68.796z   M72.511,63.877c-0.367,0.13-0.71,0.284-1.054,0.46l1.124,2.081c0.308-0.165,0.627-0.295,0.958-0.39  C73.303,65.249,72.96,64.527,72.511,63.877z M69.53,61.228c-0.129,0.391-0.295,0.756-0.508,1.112l2.033,1.205  c0.166-0.283,0.319-0.58,0.449-0.875C70.927,62.091,70.264,61.596,69.53,61.228z M64.08,74.187l-2.354,0.249  c0.023,0.188,0.036,0.39,0.036,0.579c0.698,0.449,1.478,0.78,2.305,0.97c0.036-0.308,0.061-0.627,0.061-0.947  C64.128,74.754,64.104,74.471,64.08,74.187z M63.619,60.708c-0.391-1.053-1.005-1.987-1.773-2.768  c-0.06,0.013-0.13,0.013-0.19,0.013c-2.198,0-4.208-0.887-5.65-2.353c-2.069,0.047-3.974,0.886-5.368,2.27  c-0.757,0.733-1.36,1.619-1.762,2.613c-0.165-0.036-0.319-0.06-0.485-0.07c-0.236-0.025-0.485-0.048-0.733-0.048h-0.07v2.365  c0.189,0,0.379,0.011,0.567,0.034c0.225,0.024,0.449,0.061,0.662,0.119c2.341,0.508,4.067,2.459,4.304,4.859  c0.722-0.308,1.49-0.509,2.295-0.592c-0.355-2.613-1.987-4.812-4.281-5.946c0.887-1.951,2.85-3.252,5.073-3.252  c2.435,0,4.528,1.56,5.261,3.807c0.096,0.237,0.153,0.497,0.202,0.757l2.328-0.413C63.914,61.618,63.784,61.158,63.619,60.708z   M58.073,67.34c-0.035,0.32-0.058,0.64-0.058,0.959c0,0.52,0.046,1.041,0.153,1.536c0.188,0.071,0.365,0.155,0.543,0.237  l1.063-2.104C59.231,67.684,58.665,67.482,58.073,67.34z M72.511,63.877c-0.367,0.13-0.71,0.284-1.054,0.46l1.124,2.081  c0.308-0.165,0.627-0.295,0.958-0.39C73.303,65.249,72.96,64.527,72.511,63.877z M47.586,60.365v0.153  c0.023-0.059,0.047-0.105,0.07-0.153H47.586z M47.692,51.687c-0.627-0.521-1.336-0.935-2.105-1.23  c-0.887-0.354-1.856-0.543-2.873-0.543c-1.431,0-2.778,0.378-3.937,1.063c-0.721,0.402-1.36,0.923-1.904,1.536  c-0.639,0.687-1.147,1.479-1.502,2.354c-0.308,0.744-0.496,1.536-0.555,2.364c0,0.036-0.012,0.07,0,0.106  c-0.024,0.167-0.024,0.331-0.024,0.497c0,0.602,0.071,1.193,0.201,1.761c0.615,2.72,2.625,4.908,5.238,5.771  c0.757,0.26,1.573,0.391,2.412,0.401h0.071c2.459,0,4.659-1.123,6.101-2.884c0.271-0.32,0.521-0.663,0.721-1.028  c0.214-0.344,0.391-0.711,0.532-1.088c0.367-0.898,0.568-1.869,0.568-2.897v-0.035C50.637,55.352,49.489,53.13,47.692,51.687z   M42.714,63.403c-3.062,0-5.557-2.494-5.557-5.568c0-3.062,2.495-5.558,5.557-5.558c3.062,0,5.558,2.495,5.558,5.558  c0,0.91-0.226,1.773-0.616,2.53h-0.07v0.153C46.641,62.233,44.807,63.403,42.714,63.403z M55.414,67.151  c-0.355-2.613-1.987-4.812-4.281-5.946c-0.343-0.178-0.697-0.32-1.064-0.438c-0.391-0.131-0.781-0.226-1.193-0.284  c-0.165-0.036-0.319-0.06-0.485-0.07c-0.236-0.025-0.485-0.048-0.733-0.048h-0.07v2.365c0.189,0,0.379,0.011,0.567,0.034  c0.225,0.024,0.449,0.061,0.662,0.119c2.341,0.508,4.067,2.459,4.304,4.859c0.012,0.177,0.024,0.367,0.024,0.556V68.5l2.364,0.118  v-0.319C55.508,67.908,55.484,67.53,55.414,67.151z M49.028,73.667c-0.213,0.059-0.426,0.095-0.65,0.13  c-0.26,0.035-0.532,0.059-0.792,0.059c-3.062,0-5.558-2.494-5.558-5.557c0-0.887,0.201-1.75,0.615-2.531  c0.083-0.201,0.202-0.39,0.32-0.566L41,63.877c-0.319,0.473-0.579,0.97-0.769,1.489c-0.378,0.922-0.567,1.916-0.567,2.933  c0,0.296,0.012,0.604,0.047,0.887c0.095,0.862,0.331,1.68,0.698,2.424c1.242,2.72,3.997,4.61,7.177,4.61  c0.26,0,0.52-0.011,0.78-0.034c0.425-0.047,0.852-0.131,1.265-0.237L49.028,73.667z M64.08,74.187l-2.354,0.249  c0.023,0.188,0.036,0.39,0.036,0.579c0,0.012,0,0.012,0,0.022c0,3.063-2.495,5.558-5.557,5.558c-3.075,0-5.569-2.494-5.569-5.558  c0-3.062,2.494-5.556,5.569-5.556c0.673,0,1.336,0.118,1.963,0.354c0.188,0.071,0.365,0.155,0.543,0.237l1.063-2.104  c-0.544-0.284-1.11-0.485-1.702-0.628c-0.603-0.153-1.229-0.224-1.867-0.224c-0.26,0-0.533,0.013-0.792,0.035  c-0.805,0.083-1.573,0.284-2.295,0.592c-2.482,1.039-4.315,3.311-4.741,6.054c-0.071,0.401-0.105,0.816-0.105,1.24  c0,0.391,0.022,0.769,0.094,1.148c0.544,3.818,3.855,6.774,7.84,6.774c4.044,0,7.39-3.051,7.861-6.976  c0.036-0.308,0.061-0.627,0.061-0.947C64.128,74.754,64.104,74.471,64.08,74.187z M83.128,71.326c0-4.375-3.547-7.923-7.922-7.923  c-0.922,0-1.833,0.153-2.695,0.474c0.449,0.65,0.792,1.372,1.028,2.151c0.532-0.178,1.088-0.261,1.667-0.261  c3.063,0,5.558,2.496,5.558,5.559c0,0.803-0.166,1.571-0.497,2.281c-1.419-2.093-3.831-3.464-6.551-3.464h-0.07  c0.153-0.591,0.224-1.206,0.224-1.845c0-0.792-0.117-1.55-0.33-2.271c-0.331,0.095-0.65,0.225-0.958,0.39l-1.124-2.081  c0.344-0.176,0.687-0.33,1.054-0.46c-0.284-0.438-0.627-0.852-1.006-1.207c-0.13,0.295-0.283,0.592-0.449,0.875l-2.033-1.205  c0.213-0.356,0.379-0.722,0.508-1.112c-1.076-0.556-2.306-0.862-3.594-0.862c-0.805,0-1.585,0.118-2.317,0.343  c0.165,0.45,0.295,0.91,0.378,1.396l-2.328,0.413c-0.049-0.26-0.106-0.52-0.202-0.757c-1.833,1.254-3.121,3.263-3.394,5.58  c0.592,0.143,1.158,0.344,1.702,0.628l-1.063,2.104c-0.178-0.082-0.355-0.166-0.543-0.237c0.425,2.177,1.761,4.044,3.594,5.18  c0-0.189-0.013-0.391-0.036-0.579l2.354-0.249c0.023,0.284,0.048,0.567,0.048,0.851c0,0.32-0.024,0.64-0.061,0.947  c0.604,0.154,1.229,0.235,1.869,0.235h0.083c-0.154,0.604-0.226,1.219-0.226,1.846c0,4.375,3.56,7.922,7.922,7.922  c4.375,0,7.934-3.547,7.934-7.922c0-0.627-0.07-1.241-0.224-1.833C82.537,74.837,83.128,73.123,83.128,71.326z M65.937,73.855  c-3.062,0-5.557-2.494-5.557-5.557c0-3.074,2.494-5.568,5.557-5.568c3.074,0,5.568,2.494,5.568,5.568  C71.505,71.361,69.011,73.855,65.937,73.855z M73.716,83.623c-3.062,0-5.558-2.495-5.558-5.558c0-0.817,0.178-1.62,0.533-2.354  c1.597-0.579,2.956-1.667,3.878-3.073c0.379-0.096,0.757-0.131,1.146-0.131c3.075,0,5.569,2.495,5.569,5.558  S76.791,83.623,73.716,83.623z"/><text x="0" y="105" fill="#000000" font-size="5px" font-weight="bold" font-family="'Helvetica Neue', Helvetica, Arial-Unicode, Arial, Sans-serif">Created by Katie Wright</text><text x="0" y="110" fill="#000000" font-size="5px" font-weight="bold" font-family="'Helvetica Neue', Helvetica, Arial-Unicode, Arial, Sans-serif">from the Noun Project</text></svg>