<svg xmlns="http://www.w3.org/2000/svg" xmlns:xlink="http://www.w3.org/1999/xlink" version="1.1" x="0px" y="0px" viewBox="0 0 90 112.5" enable-background="new 0 0 90 90" xml:space="preserve"><path d="M34.052,16.993l-0.072-0.06l-0.443-0.347l-0.335,0.419l-0.468,0.611l-1.185,1.509L17.952,36.518l-0.659,0.827l-0.096,0.12  l-0.611,0.791l0.479,0.371l0.048,0.036l0.503,0.396l0.576-0.73l0.155-0.204l0.611-0.779L32.59,19.927l1.174-1.497l0.467-0.611  l0.336-0.419L34.052,16.993z M34.854,15.963c-0.311-0.252-0.719-0.336-1.09-0.24c-0.012,0-0.012,0-0.024,0l-0.108,0.024v0.011  l0.348,1.174l0.013,0.06l-0.791,0.012l-0.455,0.012c0,0.012,0,0.228-0.013,0.599c0,0.287-0.024,0.671-0.048,1.137  c-0.024,0.348-0.048,0.743-0.096,1.174c-0.359,3.737-1.581,10.206-5.63,14.123c-2.133,2.048-4.804,3.151-8.002,3.294  c-0.263,0.024-0.539,0.024-0.827,0.024c-0.275,0-0.551-0.012-0.838-0.024h-0.084l-0.012,0.12l-0.06,1.138l-0.072,0.024l-1.186,0.419  c0.168,0.515,0.635,0.886,1.174,0.91c0.396,0.024,0.779,0.036,1.15,0.036c4.229,0,7.775-1.365,10.565-4.049  c6.062-5.846,6.553-16.075,6.588-18.471v-0.503C35.357,16.573,35.166,16.202,34.854,15.963z M34.231,17.819l-0.18-0.827l-0.287-1.27  c-0.012,0-0.012,0-0.024,0c-0.024,0.011-0.061,0.024-0.108,0.035c-0.083,0.013-0.191,0.037-0.324,0.084  c-2.263,0.575-12.134,3.534-16.362,10.853c-2.108,3.666-2.468,7.822-1.066,12.35l1.234-0.384l1.079-0.335l0.191-0.061  c-0.012-0.048-0.036-0.096-0.036-0.143c-0.084-0.252-0.155-0.503-0.216-0.755c0.288,0,0.563,0,0.827-0.024L32.59,19.927  c0.048-0.431,0.072-0.827,0.096-1.174c0.443-0.143,0.803-0.251,1.079-0.323c0.359-0.108,0.563-0.156,0.575-0.156L34.231,17.819z   M17.952,36.518c-0.623-3.114-0.203-5.965,1.258-8.505c2.804-4.875,8.793-7.619,12.339-8.889L17.952,36.518z M45.959,12.405  c-3.462-0.982-8.853-1.078-12.65,3.438c-0.096,0.107-0.191,0.228-0.287,0.348l0.515,0.395l0.443,0.347l0.072,0.06l0.516,0.407  l0.515,0.396c0.084-0.108,0.18-0.216,0.275-0.324c3.618-4.252,8.733-2.971,10.602-2.312c0.407,0.144,0.658,0.264,0.707,0.288  l1.126-2.36C47.275,12.848,46.653,12.608,45.959,12.405z M55.805,2.894c-3.39,0-5.976,1.102-7.69,3.258  c-1.438,1.833-2,4.145-2.155,6.253c-0.071,0.982-0.06,1.929,0,2.755c0.048,0.646,0.107,1.234,0.18,1.701  c0.826-0.275,1.677-0.467,2.563-0.563c-0.264-1.989-0.515-6.013,1.474-8.529c0.993-1.246,2.407-1.964,4.324-2.18v4.253  c-1.007,0.228-1.857,0.743-2.503,1.498c-1.222,1.449-1.45,3.486-1.438,4.911c0.91,0.06,1.797,0.215,2.647,0.443  c-0.071-1.09,0.024-2.755,0.802-3.666c0.253-0.312,0.731-0.718,1.797-0.718c0.72,0,1.307-0.587,1.307-1.306V4.211  C57.111,3.48,56.524,2.894,55.805,2.894z M66.49,45.599c-0.107-0.072-0.383-0.289-0.767-0.684c-1.389-1.424-4.024-5.114-3.39-12.002  l0.06-0.215l-2.492-0.791l-0.022,0.084l-0.085,0.263l-0.048,0.264c-0.803,8.23,2.551,12.697,4.3,14.411  c0.396,0.407,0.721,0.659,0.876,0.778c0.022,0.024,0.048,0.036,0.059,0.048c0.012,0.012,0.025,0.024,0.037,0.024l1.497-2.155  C66.515,45.623,66.504,45.61,66.49,45.599z M49.648,16.214h0.311c0.085,0,0.156,0.011,0.24,0.011v-0.024  C50.02,16.202,49.829,16.202,49.648,16.214z M59.901,31.906l-0.022,0.084c-0.025,0.083-0.048,0.167-0.072,0.251l2.479,0.815  c0.011-0.048,0.036-0.096,0.048-0.144l0.06-0.215L59.901,31.906z M49.959,16.214c0.085,0,0.156,0.011,0.24,0.011v-0.024  c-0.18,0-0.37,0-0.551,0.013H49.959z M49.648,16.214h0.311c0.085,0,0.156,0.011,0.24,0.011v-0.024  C50.02,16.202,49.829,16.202,49.648,16.214z M37.885,32.697h-0.012l0.072,0.215C37.921,32.841,37.897,32.769,37.885,32.697z   M34.555,44.915c-0.383,0.396-0.659,0.612-0.767,0.684c-0.012,0-0.023,0.024-0.023,0.024l0.754,1.077l0.743,1.078  c0.012,0,0.023-0.013,0.036-0.024c0.011-0.012,0.035-0.023,0.059-0.048c0.157-0.119,0.456-0.359,0.839-0.743  c0.012-0.012,0.024-0.022,0.036-0.035L34.555,44.915z M40.376,31.906l0.084,0.335h0.012C40.437,32.134,40.401,32.015,40.376,31.906z   M66.515,45.623c0,0-0.011-0.013-0.024-0.024c-0.251-0.24-0.503-0.467-0.767-0.684l-1.678,2.013  c0.396,0.407,0.721,0.659,0.876,0.778c0.022,0.024,0.048,0.036,0.059,0.048c0.012,0.012,0.025,0.024,0.037,0.024  c4.3,4.085,6.743,9.715,6.743,15.681c0,11.895-9.678,21.574-21.681,21.574c-11.884,0-21.562-9.68-21.562-21.574  c0-5.966,2.444-11.596,6.745-15.681c0.012,0,0.023-0.013,0.036-0.024c0.011-0.012,0.035-0.023,0.059-0.048  c0.157-0.119,0.456-0.359,0.839-0.743c0.012-0.012,0.024-0.022,0.036-0.035l-1.677-2.013c-0.263,0.217-0.514,0.444-0.767,0.684  c-0.012,0-0.023,0.024-0.023,0.024c-5.007,4.575-7.87,11.02-7.87,17.836c0,13.344,10.853,24.185,24.305,24.185  c13.332,0,24.187-10.841,24.187-24.185C74.386,56.643,71.521,50.198,66.515,45.623z M40.473,32.242  c-0.036-0.107-0.072-0.227-0.096-0.335l0.084,0.335H40.473z M40.376,31.906l0.084,0.335h0.012  C40.437,32.134,40.401,32.015,40.376,31.906z M49.648,16.214h0.311c0.085,0,0.156,0.011,0.24,0.011v-0.024  C50.02,16.202,49.829,16.202,49.648,16.214z M40.376,31.906l0.084,0.335h0.012C40.437,32.134,40.401,32.015,40.376,31.906z   M62.933,29.055c0,1.246-0.179,2.456-0.539,3.642l-2.492-0.791c0.276-0.922,0.408-1.881,0.408-2.851  c0-5.582-4.708-10.134-10.277-10.229c-5.571,0.096-10.063,4.648-10.063,10.229c0,0.97,0.132,1.929,0.407,2.851l0.084,0.335  l0.072,0.275c0.802,8.23-2.564,12.686-4.301,14.411l-1.677-2.013c1.39-1.424,4.025-5.114,3.39-12.002  c-0.024-0.072-0.048-0.144-0.06-0.215c-0.359-1.186-0.539-2.396-0.539-3.642c0-5.678,3.689-10.493,8.792-12.194  c0.826-0.275,1.677-0.467,2.563-0.563c0.311-0.048,0.623-0.072,0.946-0.083h0.311c0.085,0,0.156,0.011,0.24,0.011  c0.119,0,0.24,0.013,0.359,0.024c0.91,0.06,1.797,0.215,2.647,0.443C58.752,18.215,62.933,23.174,62.933,29.055z"/><text x="0" y="105" fill="#000000" font-size="5px" font-weight="bold" font-family="'Helvetica Neue', Helvetica, Arial-Unicode, Arial, Sans-serif">Created by Katie Wright</text><text x="0" y="110" fill="#000000" font-size="5px" font-weight="bold" font-family="'Helvetica Neue', Helvetica, Arial-Unicode, Arial, Sans-serif">from the Noun Project</text></svg>