<svg xmlns="http://www.w3.org/2000/svg" xmlns:xlink="http://www.w3.org/1999/xlink" version="1.1" x="0px" y="0px" viewBox="0 0 90 112.5" enable-background="new 0 0 90 90" xml:space="preserve"><g><g><path fill="none" stroke="#000000" stroke-width="2" stroke-linejoin="round" stroke-miterlimit="10" d="M7.996,62.631"/></g></g><path d="M84.911,53.653c0.745,0,1.349-0.604,1.349-1.349v-6.928h-0.011c0-0.367-0.14-0.713-0.41-0.972L48.164,8.532  c-0.237-0.227-0.551-0.356-0.875-0.367C13.942,6.784,7.294,25.713,7.002,26.587C6.787,27.365,1.909,45.841,6.431,62.72  c0.075,0.292,0.248,0.539,0.486,0.723l0.572,0.442c0.151,0.107,0.313,0.184,0.496,0.227l5.224,1.263l0.097,0.022l0.097,0.011  c0.701,0.118,1.371-0.335,1.532-1.015c0.551-2.31,2.871-3.734,5.191-3.185c2.298,0.562,3.723,2.883,3.172,5.191  c-0.162,0.681,0.216,1.36,0.875,1.587l0.119,0.043v0.011l38.776,9.335c0.604,0.151,1.284-0.236,1.564-0.788  c0.054-0.097,0.087-0.193,0.119-0.302c0.551-2.31,2.871-3.733,5.181-3.184c2.309,0.55,3.733,2.882,3.173,5.224l-0.021,0.119  c-0.151,0.712,0.292,1.413,1.004,1.586l10.058,2.418l0.442,0.107c0.107,0.021,0.217,0.032,0.324,0.032  c0.292,0,0.593-0.097,0.831-0.28c0.323-0.259,0.518-0.648,0.518-1.058V63.312c0-0.744-0.604-1.349-1.349-1.349  c-2.299,0-4.155-1.866-4.155-4.154S82.612,53.653,84.911,53.653z M46.675,10.842l33.66,32.052l-11.893-2.87  c-0.433-0.098-0.874,0.01-1.209,0.302c-0.291,0.249-0.453,0.626-0.453,1.004c-0.291,1.047-0.949,1.921-1.878,2.493  c-0.971,0.615-2.126,0.809-3.248,0.54c-1.112-0.259-2.072-0.939-2.677-1.91c-0.604-0.982-0.799-2.137-0.539-3.249  c0.011-0.043,0.021-0.076,0.021-0.119l0.033-0.194c0.097-0.69-0.346-1.338-1.025-1.5L10.208,26.004  C12.366,21.904,20.925,9.924,46.675,10.842z M83.562,64.521v15.013l-7.641-1.835c0.195-3.324-2.019-6.422-5.363-7.22  c-3.346-0.799-6.702,0.949-8.041,3.992L26.104,65.71v-0.012c0.162-3.281-2.04-6.313-5.353-7.112  c-3.303-0.787-6.637,0.906-8.008,3.896l-3.832-0.918C5.416,47.934,8.33,32.868,9.301,28.562l46.341,11.159  c-0.098,1.457,0.259,2.893,1.047,4.155c0.993,1.586,2.536,2.698,4.36,3.119c1.812,0.422,3.691,0.108,5.277-0.874  c1.229-0.766,2.169-1.867,2.73-3.172l14.504,3.497v4.651c-3.129,0.625-5.503,3.399-5.503,6.713S80.433,63.896,83.562,64.521z   M20.242,47.956c-3.86,0-7-3.141-7-7.001c0-3.86,3.14-7,7-7s7,3.141,7,7C27.242,44.815,24.102,47.956,20.242,47.956z M20.242,36.652  c-2.373,0-4.302,1.93-4.302,4.302s1.93,4.303,4.302,4.303s4.302-1.931,4.302-4.303S22.615,36.652,20.242,36.652z M46.402,64.215  c-3.86,0-7-3.141-7-7.001c0-3.859,3.14-7,7-7c3.859,0,7,3.141,7,7C53.402,61.074,50.262,64.215,46.402,64.215z M46.402,52.912  c-2.372,0-4.302,1.93-4.302,4.302s1.93,4.303,4.302,4.303c2.373,0,4.303-1.931,4.303-4.303S48.775,52.912,46.402,52.912z"/><text x="0" y="105" fill="#000000" font-size="5px" font-weight="bold" font-family="'Helvetica Neue', Helvetica, Arial-Unicode, Arial, Sans-serif">Created by Katie Wright</text><text x="0" y="110" fill="#000000" font-size="5px" font-weight="bold" font-family="'Helvetica Neue', Helvetica, Arial-Unicode, Arial, Sans-serif">from the Noun Project</text></svg>