<svg xmlns="http://www.w3.org/2000/svg" xmlns:xlink="http://www.w3.org/1999/xlink" version="1.1" x="0px" y="0px" viewBox="0 0 90 112.5" enable-background="new 0 0 90 90" xml:space="preserve"><path d="M7.505,40.842c-0.273-0.115-0.431-0.188-0.452-0.199l-0.336,0.715c0.011,0.01,0.094,0.042,0.252,0.116  c1.578,0.704,10.474,4.469,20.264,4.469c2.85,0,5.784-0.315,8.633-1.136c1.156-0.62,2.292-1.314,3.396-2.082  C26.539,48.624,10.408,42.104,7.505,40.842z M57.718,31.641c-0.368,0.715-0.747,1.409-1.146,2.082  C42.27,58.487,15.854,54.859,12.279,54.239c-0.242-0.042-0.378-0.074-0.399-0.074l-0.157,0.769c0.01,0,0.125,0.031,0.336,0.062  c0.904,0.158,3.565,0.567,7.246,0.567c9.369,0,25.363-2.617,36.122-18.517c1.062-1.546,2.061-3.229,2.996-5.037L57.718,31.641z   M62.019,25.405c0,0,0,0,0-0.01c-0.021-0.168-0.042-0.263-0.042-0.274l-0.778,0.137c0,0.011,0.031,0.168,0.073,0.442  c0.379,2.734,1.935,17.435-6.698,28.256c-5.91,7.402-15.3,11.493-27.919,12.145c-0.137,0.011-0.273,0.011-0.41,0.021l0.042,0.789  c0.084,0,0.168-0.011,0.242-0.011c12.945-0.642,22.588-4.836,28.666-12.46C64.228,43.113,62.365,27.698,62.019,25.405z   M70.031,23.639c-0.179-0.2-0.273-0.305-0.283-0.315l-0.769,0.726c0.011,0.011,0.137,0.147,0.357,0.399  c1.82,2.124,10.127,12.535,8.854,25.343c-0.936,9.485-6.835,18.15-17.54,25.764c-0.01,0.011-0.021,0.011-0.032,0.021l0.442,0.632  l0.168,0.23c10.989-7.802,17.046-16.73,18.014-26.541C80.558,36.468,71.725,25.584,70.031,23.639z M61.062,76.207  c-0.105-0.232-0.231-0.453-0.41-0.652c-0.042-0.063-0.095-0.126-0.158-0.189c-0.494-0.494-1.124-0.8-1.913-0.904  c-0.295,0.348-0.59,0.683-0.883,1.01c0.914-0.042,1.587,0.168,2.039,0.62c0.548,0.567,0.652,1.389,0.662,1.872  c0.315-0.096,0.663-0.2,1.031-0.326C61.398,77.216,61.304,76.701,61.062,76.207z M26.644,65.743c-0.053-0.6-0.305-1.146-0.747-1.661  h-0.011c-0.01,0.01-0.021,0.01-0.031,0.01c-0.053,0.022-0.105,0.032-0.158,0.053c-0.021,0-0.042,0.011-0.062,0.011  c-0.116,0.021-0.232,0.031-0.347,0.011c-0.179-0.021-0.358-0.052-0.537-0.084c0.116,0.084,0.21,0.168,0.305,0.263  c0.483,0.452,0.746,0.946,0.81,1.472c0.074,0.758-0.294,1.452-0.599,1.862c-0.179,0.252-0.337,0.409-0.337,0.409l0.547,0.568  c0.032-0.021,0.315-0.306,0.6-0.768c0.168-0.274,0.336-0.61,0.452-0.989c0.074-0.252,0.116-0.515,0.126-0.799  C26.665,65.985,26.654,65.87,26.644,65.743z M12.29,53.155c-0.252,0.021-0.515,0.032-0.778,0.032  c0.084,0.853-0.073,1.525-0.483,2.009c-0.453,0.525-1.125,0.746-1.62,0.831c0.221,0.136,0.536,0.336,0.925,0.567  c0.463-0.179,0.925-0.463,1.293-0.894c0.179-0.21,0.326-0.453,0.431-0.705c0.105-0.241,0.179-0.494,0.221-0.757  C12.332,53.902,12.332,53.545,12.29,53.155z M7.842,38.014l-0.778,0.147c0.073,0.337,0.105,0.652,0.105,0.947  c0,0.641-0.168,1.167-0.504,1.556c-0.368,0.441-0.905,0.674-1.357,0.778c-0.504,0.147-0.925,0.137-0.925,0.137l-0.032,0.789h0.052  c0.189,0,0.821-0.021,1.504-0.273c0.357-0.126,0.736-0.325,1.062-0.62c0.105-0.084,0.2-0.19,0.294-0.295  c0.084-0.104,0.168-0.221,0.242-0.337c0.274-0.441,0.42-0.956,0.441-1.545C7.968,38.897,7.937,38.476,7.842,38.014z M58.928,21.746  c-0.295,0.179-0.568,0.295-0.831,0.378c0,0.274,0.01,0.537,0,0.81c0.389-0.084,0.799-0.252,1.23-0.505L58.928,21.746z M62.46,23.828  c-0.189,0.295-0.39,0.537-0.599,0.715c-0.274,0.242-0.568,0.378-0.873,0.41c-0.326,0.032-0.632-0.053-0.883-0.168  c-0.443-0.2-0.748-0.505-0.748-0.516l-0.566,0.547c0.021,0.032,0.525,0.537,1.261,0.789c0.242,0.084,0.505,0.137,0.789,0.137  c0.073,0,0.147,0,0.221-0.011c0.073-0.01,0.137-0.021,0.21-0.032c0.263-0.053,0.516-0.147,0.747-0.294c0,0,0,0,0-0.01  c0.094-0.042,0.189-0.116,0.284-0.189c0.294-0.231,0.568-0.547,0.819-0.946L62.46,23.828z M69.748,23.323l-0.769,0.726  c0.011,0.011,0.137,0.147,0.357,0.399c0.063-0.042,0.127-0.105,0.19-0.158c0.199-0.189,0.367-0.41,0.504-0.652  C69.853,23.438,69.758,23.334,69.748,23.323z M51.818,27.477c-0.515,0.536-1.052,1.073-1.62,1.598  C39.326,39.18,24.341,41.694,5.676,36.531C5.539,36.5,5.392,36.489,5.255,36.5c-0.179,0.031-1.798,0.284-2.513,1.713  c-0.547,1.105-0.358,2.482,0.557,4.102c0.032,0.053,0.073,0.104,0.105,0.146c0.179,0.221,3.901,4.68,10.084,8.497  c1.157-0.084,2.366-0.199,3.638-0.367c-5.531-2.86-9.538-6.72-11.22-8.497c-0.252-0.273-0.453-0.494-0.6-0.652  c-0.095-0.116-0.179-0.199-0.221-0.253c-0.495-0.883-0.663-1.619-0.462-2.029c0.146-0.305,0.525-0.463,0.747-0.526  c0.589,0.158,1.188,0.315,1.798,0.474c0.263,0.062,0.515,0.126,0.778,0.189c12.219,2.902,28.098,3.576,40.958-6.373  c1.084-1.651,2.071-3.46,2.935-5.426L51.818,27.477z M62.46,23.828c-0.189,0.295-0.39,0.537-0.599,0.715  c0.137,0.252,0.294,0.473,0.441,0.663c0.294-0.231,0.568-0.547,0.819-0.946L62.46,23.828z M62.019,25.405  c-0.231,0.147-0.484,0.242-0.747,0.294c0.379,2.734,1.935,17.435-6.698,28.256c-5.91,7.402-15.3,11.493-27.919,12.145  c0.011-0.115,0-0.23-0.01-0.357c-0.053-0.6-0.305-1.146-0.747-1.661h-0.011c-0.01,0.01-0.021,0.01-0.031,0.01  c-0.053,0.022-0.105,0.032-0.158,0.053c-0.021,0-0.042,0.011-0.062,0.011c-0.116,0.021-0.232,0.031-0.347,0.011  c-0.179-0.021-0.358-0.052-0.537-0.084c0.116,0.084,0.21,0.168,0.305,0.263c0.483,0.452,0.746,0.946,0.81,1.472  c0.074,0.758-0.294,1.452-0.599,1.862c-0.179,0.252-0.337,0.409-0.337,0.409l0.547,0.568c0.032-0.021,0.315-0.306,0.6-0.768  c0.168-0.274,0.336-0.61,0.452-0.989c12.945-0.642,22.588-4.836,28.666-12.46C64.228,43.113,62.365,27.698,62.019,25.405z   M59.357,24.27l-0.566,0.547c0.021,0.032,0.525,0.537,1.261,0.789c0.021-0.273,0.032-0.547,0.054-0.82  C59.662,24.585,59.357,24.28,59.357,24.27z M58.928,21.746c-0.295,0.179-0.568,0.295-0.831,0.378c0,0.274,0.01,0.537,0,0.81  c0.389-0.084,0.799-0.252,1.23-0.505L58.928,21.746z M57.718,31.641c-0.368,0.715-0.747,1.409-1.146,2.082  c-0.326,1.146-0.715,2.261-1.146,3.323c1.062-1.546,2.061-3.229,2.996-5.037L57.718,31.641z M70.031,23.639  c-0.179-0.2-0.273-0.305-0.283-0.315l-0.769,0.726c0.011,0.011,0.137,0.147,0.357,0.399c1.82,2.124,10.127,12.535,8.854,25.343  c-0.936,9.485-6.835,18.15-17.54,25.764c-0.042-0.063-0.095-0.126-0.158-0.189c-0.494-0.494-1.124-0.8-1.913-0.904  c-0.295,0.348-0.59,0.683-0.883,1.01c0.914-0.042,1.587,0.168,2.039,0.62c0.548,0.567,0.652,1.389,0.662,1.872  c0.315-0.096,0.663-0.2,1.031-0.326c-0.031-0.421-0.126-0.936-0.368-1.43l0.168,0.23c10.989-7.802,17.046-16.73,18.014-26.541  C80.558,36.468,71.725,25.584,70.031,23.639z M61.861,24.543c-0.274,0.242-0.568,0.378-0.873,0.41  c-0.326,0.032-0.632-0.053-0.883-0.168c-0.443-0.2-0.748-0.505-0.748-0.516l-0.566,0.547c0.021,0.032,0.525,0.537,1.261,0.789  c0.242,0.084,0.505,0.137,0.789,0.137c0.073,0,0.147,0,0.221-0.011c0.073-0.01,0.137-0.021,0.21-0.032  c0.263-0.053,0.516-0.147,0.747-0.294c0,0,0,0,0-0.01c0.094-0.042,0.189-0.116,0.284-0.189  C62.155,25.016,61.998,24.795,61.861,24.543z M58.928,21.746c-0.295,0.179-0.568,0.295-0.831,0.378c0,0.274,0.01,0.537,0,0.81  c0.389-0.084,0.799-0.252,1.23-0.505L58.928,21.746z M57.718,31.641c-0.368,0.715-0.747,1.409-1.146,2.082  C42.27,58.487,15.854,54.859,12.279,54.239c0.053-0.337,0.053-0.694,0.01-1.084c-0.252,0.021-0.515,0.032-0.778,0.032  c0.084,0.853-0.073,1.525-0.483,2.009c-0.453,0.525-1.125,0.746-1.62,0.831c0.221,0.136,0.536,0.336,0.925,0.567  c0.463-0.179,0.925-0.463,1.293-0.894c0.179-0.21,0.326-0.453,0.431-0.705c0.904,0.158,3.565,0.567,7.246,0.567  c9.369,0,25.363-2.617,36.122-18.517c1.062-1.546,2.061-3.229,2.996-5.037L57.718,31.641z M7.505,40.842  c0.274-0.441,0.42-0.956,0.441-1.545c-0.263-0.062-0.515-0.126-0.778-0.189c0,0.641-0.168,1.167-0.504,1.556  c-0.368,0.441-0.905,0.674-1.357,0.778c0.147,0.158,0.347,0.379,0.6,0.652c0.357-0.126,0.736-0.325,1.062-0.62  c1.578,0.704,10.474,4.469,20.264,4.469c2.85,0,5.784-0.315,8.633-1.136c1.156-0.62,2.292-1.314,3.396-2.082  C26.539,48.624,10.408,42.104,7.505,40.842z M84.007,31.2c-0.2-0.432-4.974-10.463-12.944-10.253  c-0.116-0.011-2.808-0.273-3.943-5.353c-0.074-0.315,0.251-0.715,0.788-1.346c0.484-0.568,1.03-1.22,1.378-2.082  c0.389-0.936,0.052-1.577-0.179-1.872c-0.8-1.041-2.64-0.946-3.48-0.851h-6.572c-0.012,0-0.012,0-0.021,0  c-1.305,0-3.008,0.231-3.797,1.325c-0.283,0.399-0.567,1.083-0.251,2.03c0.556,1.682-0.012,3.817-0.012,3.827  c-0.011,0.042-0.021,0.084-0.031,0.116c-0.651,4.038-1.725,7.603-3.102,10.757c-0.863,1.966-1.851,3.775-2.935,5.426  c-2.691,4.123-6.025,7.319-9.643,9.801c-1.104,0.768-2.24,1.462-3.396,2.082c-6.226,3.428-12.977,5.058-18.739,5.784  c-1.272,0.168-2.481,0.283-3.638,0.367c-1.893,0.137-3.617,0.19-5.1,0.19c-0.137,0-0.284,0.03-0.41,0.084  c-0.168,0.072-1.662,0.746-1.967,2.312c-0.231,1.21,0.315,2.482,1.63,3.807c0.042,0.042,0.095,0.074,0.147,0.116  c0.263,0.179,5.814,4.027,13.712,5.962c-0.411,0.41-1.115,1.305-1.021,2.524c0.095,1.23,0.968,2.312,2.587,3.228  c0.053,0.032,0.105,0.053,0.168,0.074c0.137,0.052,5.941,2.051,13.513,2.051c9.895,0,22.788-3.429,29.854-19.118  c1.503-3.334,2.703-7.141,3.554-11.389c0.558,11.757-4.68,23.503-15.615,34.996c-0.095,0.105-0.168,0.221-0.221,0.357  c-0.063,0.169-0.6,1.714,0.326,3.019c0.684,0.957,1.902,1.44,3.638,1.44h0.242c0.053-0.011,0.115-0.011,0.179-0.021  c0.705-0.147,17.277-3.628,24.953-17.351C88.518,54.565,88.645,43.808,84.007,31.2z M68.255,39.612  c-0.831,4.354-2.03,8.297-3.565,11.715C59.8,62.168,51.503,68.162,40.02,69.129c-5.878,0.494-11.146-0.515-13.943-1.24  c-0.284,0.462-0.568,0.747-0.6,0.768l-0.547-0.568c0,0,0.158-0.157,0.337-0.409c-0.642-0.179-1.073-0.327-1.241-0.379  c-0.883-0.505-1.398-1.052-1.441-1.504c-0.031-0.337,0.21-0.662,0.358-0.831c0.715-0.2,1.42-0.409,2.114-0.62  c-0.095-0.095-0.189-0.179-0.305-0.263c0.179,0.032,0.358,0.062,0.537,0.084c0.115,0.021,0.231,0.011,0.347-0.011  c0.021,0,0.042-0.011,0.062-0.011c0.053-0.021,0.105-0.03,0.158-0.053c0.01,0,0.021,0,0.031-0.01h0.011  c26.909-8.612,33.229-26.299,34.154-38.477c-0.735-0.252-1.24-0.757-1.261-0.789l0.566-0.547c0,0.011,0.305,0.316,0.748,0.516  c0.157-2.797,0.041-5.279-0.158-7.246c-0.063-0.578-0.59-1.009-1.156-0.946c-0.579,0.063-1,0.578-0.947,1.157  c0.158,1.514,0.231,2.965,0.253,4.374c0.263-0.083,0.536-0.2,0.831-0.378l0.399,0.684c-0.432,0.252-0.842,0.421-1.23,0.505  c-0.021,3.954-0.568,7.54-1.525,10.789c0.399-0.673,0.778-1.367,1.146-2.082l0.704,0.368c-0.936,1.809-1.935,3.491-2.996,5.037  c-5.974,14.827-20.664,21.882-30.107,24.996c-6.856-1.021-12.503-3.986-14.985-5.447c-0.389-0.231-0.705-0.432-0.925-0.567  c-0.168-0.105-0.284-0.189-0.347-0.231C8.357,55.069,8,54.397,8.073,53.956c0.063-0.337,0.389-0.59,0.578-0.705  c0.968,0,1.924-0.021,2.86-0.063c0.263,0,0.526-0.011,0.778-0.032c29.875-1.387,40.012-18.791,43.452-30.453  c0.409,0.189,0.925,0.336,1.514,0.336c0.263,0,0.547-0.031,0.842-0.105c0.01-0.273,0-0.536,0-0.81  c-0.905,0.274-1.642,0.074-2.146-0.189c0.494-1.777,0.831-3.407,1.062-4.806c0.105-0.431,0.673-2.86-0.031-4.995  c-0.031-0.083-0.031-0.137-0.042-0.137c0.105-0.157,0.852-0.441,2.135-0.452h6.625c0.042,0,0.084,0,0.136-0.011  c0.484-0.063,1.073-0.042,1.421,0.021c-0.232,0.474-0.6,0.915-0.957,1.335c-0.715,0.852-1.535,1.819-1.23,3.165  c0.915,4.06,2.797,5.763,4.206,6.468c-0.053,0.431-0.21,0.757-0.463,0.999c-0.39,0.358-0.946,0.462-1.356,0.483  c-1.346-2.313-2.766-4.227-3.985-5.847l-0.095,0.074c-0.127-0.232-0.348-0.421-0.631-0.495c-0.558-0.158-1.136,0.158-1.294,0.726  c-0.819,2.881-0.305,4.848,0.411,6.078c0.209-0.179,0.409-0.42,0.599-0.715l0.662,0.432c-0.251,0.399-0.525,0.715-0.819,0.946  c0.525,0.673,1.03,0.999,1.094,1.041c0.831,0.463,1.556,1.093,2.176,1.872C68.938,32.314,68.255,39.612,68.255,39.612z   M65.814,25.374c-0.421-0.358-0.862-0.663-1.324-0.926c-0.063-0.053-1.326-0.925-1.347-3.186  C64.037,22.492,64.952,23.839,65.814,25.374z M81.841,62.199c-5.258,9.4-15.312,13.755-20.411,15.438  c-0.368,0.126-0.716,0.23-1.031,0.326c-1.062,0.325-1.787,0.494-2.028,0.546c-0.989,0-1.746-0.188-2.009-0.558  c-0.199-0.272-0.158-0.672-0.116-0.903c0.483-0.516,0.968-1.041,1.452-1.577c0.293-0.327,0.588-0.662,0.883-1.01  c8.728-10.063,16.94-24.828,12.398-42c-0.758-2.871-1.81-5.321-2.966-7.455c0.431-0.074,0.915-0.242,1.324-0.558  c-0.221-0.252-0.347-0.389-0.357-0.399l0.769-0.726c0.01,0.011,0.104,0.115,0.283,0.315c0.104-0.221,0.189-0.463,0.231-0.726  c0.421,0.116,0.704,0.126,0.768,0.126h0.179c6.551,0,10.853,8.959,10.863,8.97C86.446,43.924,86.373,54.092,81.841,62.199z"/><text x="0" y="105" fill="#000000" font-size="5px" font-weight="bold" font-family="'Helvetica Neue', Helvetica, Arial-Unicode, Arial, Sans-serif">Created by Katie Wright</text><text x="0" y="110" fill="#000000" font-size="5px" font-weight="bold" font-family="'Helvetica Neue', Helvetica, Arial-Unicode, Arial, Sans-serif">from the Noun Project</text></svg>