<svg xmlns="http://www.w3.org/2000/svg" xmlns:xlink="http://www.w3.org/1999/xlink" version="1.1" x="0px" y="0px" viewBox="0 0 90 112.5" enable-background="new 0 0 90 90" xml:space="preserve"><path d="M27.943,44.861c-0.509-2.757-2.669-4.707-4.928-4.285c-1.097,0.199-2.016,0.931-2.591,2.059  c-0.554,1.074-0.72,2.394-0.477,3.712c0.465,2.513,2.282,4.341,4.331,4.341c0.199,0,0.398-0.013,0.598-0.057  C27.079,50.232,28.453,47.642,27.943,44.861z M24.676,49.547c-1.617,0.298-3.245-1.263-3.644-3.401  c-0.2-1.084-0.066-2.147,0.376-3.012c0.421-0.809,1.063-1.329,1.806-1.474c0.132-0.021,0.265-0.033,0.398-0.033  c1.484,0,2.879,1.474,3.245,3.445C27.256,47.243,26.282,49.246,24.676,49.547z M29.67,21.405l-0.011,0.022  c0.033,0.022,0.111,0.088,0.233,0.177C29.814,21.539,29.748,21.472,29.67,21.405z M27.943,44.861  c-0.509-2.757-2.669-4.707-4.928-4.285c-1.097,0.199-2.016,0.931-2.591,2.059c-0.554,1.074-0.72,2.394-0.477,3.712  c0.465,2.513,2.282,4.341,4.331,4.341c0.199,0,0.398-0.013,0.598-0.057C27.079,50.232,28.453,47.642,27.943,44.861z M24.676,49.547  c-1.617,0.298-3.245-1.263-3.644-3.401c-0.2-1.084-0.066-2.147,0.376-3.012c0.421-0.809,1.063-1.329,1.806-1.474  c0.132-0.021,0.265-0.033,0.398-0.033c1.484,0,2.879,1.474,3.245,3.445C27.256,47.243,26.282,49.246,24.676,49.547z M45.64,47.907  c-2.791-0.896-5.659-5.349-8.693-10.067c-3.92-6.102-7.985-12.415-12.835-12.415c-1.917,0-3.81,1.008-5.638,3.013  C7.609,40.332,9.271,52.879,9.293,53.035c1.097,5.625,4.663,9.856,10.322,12.248c4.241,1.784,8.106,1.916,8.162,1.904  c0.366,0.078,0.765,0.123,1.174,0.123c6.679,0,18.196-10.268,19.037-15.66C48.275,49.812,47.444,48.483,45.64,47.907z   M46.891,51.484c-0.773,4.939-11.805,14.718-17.94,14.718c-0.332,0-0.653-0.033-1.041-0.109c-0.155-0.012-15.062-0.577-17.52-13.247  c-0.022-0.12-1.606-12.149,8.904-23.655c1.628-1.794,3.212-2.658,4.818-2.658c4.241,0,8.14,6.058,11.905,11.905  c3.145,4.895,6.125,9.513,9.292,10.532C46.593,49.38,47.091,50.178,46.891,51.484z M23.015,40.576  c-1.097,0.199-2.016,0.931-2.591,2.059c-0.554,1.074-0.72,2.394-0.477,3.712c0.465,2.513,2.282,4.341,4.331,4.341  c0.199,0,0.398-0.013,0.598-0.057c2.204-0.398,3.578-2.989,3.068-5.77C27.434,42.104,25.274,40.154,23.015,40.576z M24.676,49.547  c-1.617,0.298-3.245-1.263-3.644-3.401c-0.2-1.084-0.066-2.147,0.376-3.012c0.421-0.809,1.063-1.329,1.806-1.474  c0.132-0.021,0.265-0.033,0.398-0.033c1.484,0,2.879,1.474,3.245,3.445C27.256,47.243,26.282,49.246,24.676,49.547z M27.943,44.861  c-0.509-2.757-2.669-4.707-4.928-4.285c-1.097,0.199-2.016,0.931-2.591,2.059c-0.554,1.074-0.72,2.394-0.477,3.712  c0.465,2.513,2.282,4.341,4.331,4.341c0.199,0,0.398-0.013,0.598-0.057C27.079,50.232,28.453,47.642,27.943,44.861z M24.676,49.547  c-1.617,0.298-3.245-1.263-3.644-3.401c-0.2-1.084-0.066-2.147,0.376-3.012c0.421-0.809,1.063-1.329,1.806-1.474  c0.132-0.021,0.265-0.033,0.398-0.033c1.484,0,2.879,1.474,3.245,3.445C27.256,47.243,26.282,49.246,24.676,49.547z M29.67,21.405  l-0.011,0.022c0.033,0.022,0.111,0.088,0.233,0.177C29.814,21.539,29.748,21.472,29.67,21.405z M27.943,44.861  c-0.509-2.757-2.669-4.707-4.928-4.285c-1.097,0.199-2.016,0.931-2.591,2.059c-0.554,1.074-0.72,2.394-0.477,3.712  c0.465,2.513,2.282,4.341,4.331,4.341c0.199,0,0.398-0.013,0.598-0.057C27.079,50.232,28.453,47.642,27.943,44.861z M24.676,49.547  c-1.617,0.298-3.245-1.263-3.644-3.401c-0.2-1.084-0.066-2.147,0.376-3.012c0.421-0.809,1.063-1.329,1.806-1.474  c0.132-0.021,0.265-0.033,0.398-0.033c1.484,0,2.879,1.474,3.245,3.445C27.256,47.243,26.282,49.246,24.676,49.547z M45.64,47.907  c-2.791-0.896-5.659-5.349-8.693-10.067c-3.92-6.102-7.985-12.415-12.835-12.415c-1.917,0-3.81,1.008-5.638,3.013  C7.609,40.332,9.271,52.879,9.293,53.035c1.097,5.625,4.663,9.856,10.322,12.248c4.241,1.784,8.106,1.916,8.162,1.904  c0.366,0.078,0.765,0.123,1.174,0.123c6.679,0,18.196-10.268,19.037-15.66C48.275,49.812,47.444,48.483,45.64,47.907z   M46.891,51.484c-0.773,4.939-11.805,14.718-17.94,14.718c-0.332,0-0.653-0.033-1.041-0.109c-0.155-0.012-15.062-0.577-17.52-13.247  c-0.022-0.12-1.606-12.149,8.904-23.655c1.628-1.794,3.212-2.658,4.818-2.658c4.241,0,8.14,6.058,11.905,11.905  c3.145,4.895,6.125,9.513,9.292,10.532C46.593,49.38,47.091,50.178,46.891,51.484z M23.015,40.576  c-1.097,0.199-2.016,0.931-2.591,2.059c-0.554,1.074-0.72,2.394-0.477,3.712c0.465,2.513,2.282,4.341,4.331,4.341  c0.199,0,0.398-0.013,0.598-0.057c2.204-0.398,3.578-2.989,3.068-5.77C27.434,42.104,25.274,40.154,23.015,40.576z M24.676,49.547  c-1.617,0.298-3.245-1.263-3.644-3.401c-0.2-1.084-0.066-2.147,0.376-3.012c0.421-0.809,1.063-1.329,1.806-1.474  c0.132-0.021,0.265-0.033,0.398-0.033c1.484,0,2.879,1.474,3.245,3.445C27.256,47.243,26.282,49.246,24.676,49.547z M27.943,44.861  c-0.509-2.757-2.669-4.707-4.928-4.285c-1.097,0.199-2.016,0.931-2.591,2.059c-0.554,1.074-0.72,2.394-0.477,3.712  c0.465,2.513,2.282,4.341,4.331,4.341c0.199,0,0.398-0.013,0.598-0.057C27.079,50.232,28.453,47.642,27.943,44.861z M24.676,49.547  c-1.617,0.298-3.245-1.263-3.644-3.401c-0.2-1.084-0.066-2.147,0.376-3.012c0.421-0.809,1.063-1.329,1.806-1.474  c0.132-0.021,0.265-0.033,0.398-0.033c1.484,0,2.879,1.474,3.245,3.445C27.256,47.243,26.282,49.246,24.676,49.547z M27.943,44.861  c-0.509-2.757-2.669-4.707-4.928-4.285c-1.097,0.199-2.016,0.931-2.591,2.059c-0.554,1.074-0.72,2.394-0.477,3.712  c0.465,2.513,2.282,4.341,4.331,4.341c0.199,0,0.398-0.013,0.598-0.057C27.079,50.232,28.453,47.642,27.943,44.861z M24.676,49.547  c-1.617,0.298-3.245-1.263-3.644-3.401c-0.2-1.084-0.066-2.147,0.376-3.012c0.421-0.809,1.063-1.329,1.806-1.474  c0.132-0.021,0.265-0.033,0.398-0.033c1.484,0,2.879,1.474,3.245,3.445C27.256,47.243,26.282,49.246,24.676,49.547z M45.64,47.907  c-2.791-0.896-5.659-5.349-8.693-10.067c-3.92-6.102-7.985-12.415-12.835-12.415c-1.917,0-3.81,1.008-5.638,3.013  C7.609,40.332,9.271,52.879,9.293,53.035c1.097,5.625,4.663,9.856,10.322,12.248c4.241,1.784,8.106,1.916,8.162,1.904  c0.366,0.078,0.765,0.123,1.174,0.123c6.679,0,18.196-10.268,19.037-15.66C48.275,49.812,47.444,48.483,45.64,47.907z   M46.891,51.484c-0.773,4.939-11.805,14.718-17.94,14.718c-0.332,0-0.653-0.033-1.041-0.109c-0.155-0.012-15.062-0.577-17.52-13.247  c-0.022-0.12-1.606-12.149,8.904-23.655c1.628-1.794,3.212-2.658,4.818-2.658c4.241,0,8.14,6.058,11.905,11.905  c3.145,4.895,6.125,9.513,9.292,10.532C46.593,49.38,47.091,50.178,46.891,51.484z M23.015,40.576  c-1.097,0.199-2.016,0.931-2.591,2.059c-0.554,1.074-0.72,2.394-0.477,3.712c0.465,2.513,2.282,4.341,4.331,4.341  c0.199,0,0.398-0.013,0.598-0.057c2.204-0.398,3.578-2.989,3.068-5.77C27.434,42.104,25.274,40.154,23.015,40.576z M24.676,49.547  c-1.617,0.298-3.245-1.263-3.644-3.401c-0.2-1.084-0.066-2.147,0.376-3.012c0.421-0.809,1.063-1.329,1.806-1.474  c0.132-0.021,0.265-0.033,0.398-0.033c1.484,0,2.879,1.474,3.245,3.445C27.256,47.243,26.282,49.246,24.676,49.547z M27.943,44.861  c-0.509-2.757-2.669-4.707-4.928-4.285c-1.097,0.199-2.016,0.931-2.591,2.059c-0.554,1.074-0.72,2.394-0.477,3.712  c0.465,2.513,2.282,4.341,4.331,4.341c0.199,0,0.398-0.013,0.598-0.057C27.079,50.232,28.453,47.642,27.943,44.861z M24.676,49.547  c-1.617,0.298-3.245-1.263-3.644-3.401c-0.2-1.084-0.066-2.147,0.376-3.012c0.421-0.809,1.063-1.329,1.806-1.474  c0.132-0.021,0.265-0.033,0.398-0.033c1.484,0,2.879,1.474,3.245,3.445C27.256,47.243,26.282,49.246,24.676,49.547z M27.943,44.861  c-0.509-2.757-2.669-4.707-4.928-4.285c-1.097,0.199-2.016,0.931-2.591,2.059c-0.554,1.074-0.72,2.394-0.477,3.712  c0.465,2.513,2.282,4.341,4.331,4.341c0.199,0,0.398-0.013,0.598-0.057C27.079,50.232,28.453,47.642,27.943,44.861z M24.676,49.547  c-1.617,0.298-3.245-1.263-3.644-3.401c-0.2-1.084-0.066-2.147,0.376-3.012c0.421-0.809,1.063-1.329,1.806-1.474  c0.132-0.021,0.265-0.033,0.398-0.033c1.484,0,2.879,1.474,3.245,3.445C27.256,47.243,26.282,49.246,24.676,49.547z M29.67,21.405  l-0.011,0.022c0.033,0.022,0.111,0.088,0.233,0.177C29.814,21.539,29.748,21.472,29.67,21.405z M66.649,35.481l-0.422,0.056  l0.31,2.193l2.581-0.376C68.431,36.688,67.611,36.057,66.649,35.481z M71.654,42.07l-1.141,0.167l0.311,2.192l0.919-0.133  C71.81,43.521,71.776,42.779,71.654,42.07z M77.602,33.876l-0.985,0.144l-9.967,1.461l-0.422,0.056l0.31,2.193l2.581-0.376  l8.649-1.262l0.145-0.022h0.011L77.602,33.876z M77.579,41.207l-0.244,0.033l-5.681,0.83l-1.141,0.167l0.311,2.192l0.919-0.133  l5.161-0.754L77.9,43.4L77.579,41.207z M85.797,38.095c-0.354-0.389-0.798-0.731-1.284-0.998l-1.053,1.949  c0.021,0.012,0.056,0.034,0.078,0.044c0.963,0.565,1.561,1.595,1.561,2.713c0,1.738-1.406,3.146-3.133,3.146  c-1.596,0-2.936-1.196-3.123-2.779c-0.034-0.299-0.189-0.564-0.422-0.742c-0.231-0.188-0.542-0.267-0.83-0.222h-0.012l-0.244,0.033  l0.156,1.085l-0.853,0.101c0.043,0.387,0.132,0.764,0.266,1.117c0.719,2.127,2.724,3.622,5.062,3.622  c2.945,0,5.348-2.403,5.348-5.36C87.313,40.399,86.76,39.081,85.797,38.095z M81.966,29.003c-2.847,0-5.173,2.226-5.35,5.017  c-0.012,0.111-0.012,0.232-0.012,0.344c0,0.254,0.023,0.509,0.057,0.764l0.94-0.133l0.166,1.097l0.145-0.022h0.011  c0.599-0.1,1.019-0.642,0.931-1.251c-0.022-0.155-0.034-0.299-0.034-0.454c0-1.729,1.406-3.146,3.146-3.146  c1.727,0,3.133,1.417,3.133,3.146c0,1.14-0.62,2.203-1.628,2.746c-0.354,0.2-0.53,0.587-0.53,0.997  c-0.013,0.366,0.209,0.731,0.52,0.941c0.021,0.012,0.056,0.034,0.078,0.044l0.486-0.952l0.51,0.919  c0.477-0.255,0.897-0.576,1.263-0.963c0.963-0.986,1.517-2.326,1.517-3.732C87.313,31.406,84.911,29.003,81.966,29.003z   M70.824,44.43l-0.311-2.192l1.141-0.167c-0.166-1.008-0.509-1.949-1.03-2.823c-0.398-0.665-0.897-1.296-1.506-1.894l-2.581,0.376  l-0.31-2.193l0.422-0.056c-2.725-1.661-6.601-2.979-11.896-4.108c-10.676-2.27-21.838-10.299-23.533-11.54  c-0.022-0.022-0.044-0.033-0.055-0.044c-2.226-1.872-4.574-3.023-7.099-3.023c-2.714,0-5.405,1.384-7.997,4.12  C1.065,36.722,3.157,52.824,3.269,53.566C6.657,70.998,26.99,72.215,28.651,72.282c0.476,0.089,0.986,0.134,1.518,0.134  c0.254,0,0.521-0.012,0.797-0.034c1.285,0.199,2.547,0.288,3.798,0.288c18.518,0,34.564-19.125,36.534-26.002  c0.233-0.82,0.389-1.606,0.444-2.371L70.824,44.43z M29.006,70.09c-0.066-0.012-0.133-0.022-0.2-0.022  c-0.055,0-5.117-0.121-10.553-2.304C11.077,64.896,6.768,59.968,5.45,53.189c-0.022-0.154-2.049-15.714,12.237-30.776  c2.182-2.304,4.264-3.434,6.379-3.434c1.916,0,3.776,0.919,5.604,2.425c0.078,0.066,0.144,0.133,0.222,0.2  c0.011,0.011,0.021,0.022,0.044,0.033c3.4,2.924,6.678,7.863,9.878,12.692c4.263,6.445,8.295,12.526,12.725,13.866  c1.539,0.465,2.104,1.285,1.895,2.746c-0.942,6.302-16.081,19.26-24.265,19.26C29.748,70.201,29.36,70.167,29.006,70.09z   M69.174,46.058c-1.751,6.113-15.35,22.515-31.541,24.253c8.439-4.053,18.107-13.077,18.981-19.048  c0.389-2.559-0.83-4.396-3.433-5.184c-3.665-1.117-7.663-7.143-11.528-12.968c-1.54-2.337-3.102-4.684-4.718-6.855  c4.674,2.758,11.032,5.937,17.355,7.288c8.072,1.717,12.657,3.887,14.429,6.844C69.672,41.96,69.815,43.821,69.174,46.058z"/><text x="0" y="105" fill="#000000" font-size="5px" font-weight="bold" font-family="'Helvetica Neue', Helvetica, Arial-Unicode, Arial, Sans-serif">Created by Katie Wright</text><text x="0" y="110" fill="#000000" font-size="5px" font-weight="bold" font-family="'Helvetica Neue', Helvetica, Arial-Unicode, Arial, Sans-serif">from the Noun Project</text></svg>