<svg xmlns="http://www.w3.org/2000/svg" xmlns:xlink="http://www.w3.org/1999/xlink" version="1.1" x="0px" y="0px" viewBox="0 0 90 112.5" enable-background="new 0 0 90 90" xml:space="preserve"><path d="M61.15,74.49V52.37c0-0.39-0.23-0.74-0.58-0.91c-0.351-0.16-0.761-0.11-1.061,0.14c-1.21,1-1.97,2.21-2,2.261l1.641,1.02  v19.63c0,0.03,0.05,2.51-1.681,4.28c-1.18,1.21-2.93,1.83-5.22,1.83H37.1c-1.92,0-3.4-0.54-4.41-1.59  c-1.67-1.75-1.56-4.44-1.56-4.521V54.9l1.71-1.03c-0.64-1.07-1.34-1.92-2.07-2.521c-0.3-0.25-0.72-0.3-1.07-0.13  c-0.35,0.16-0.57,0.521-0.57,0.9v22.34c-0.01,0.14-0.16,3.54,2.1,5.94c1.4,1.47,3.37,2.22,5.87,2.22h15.15  c2.85,0,5.09-0.82,6.66-2.43C61.22,77.81,61.15,74.59,61.15,74.49z M59.15,54.88l-1.641-1.02c-0.02,0.029-1.729,2.72-3.76,2.729  c-1.13-0.01-2.25-0.92-3.33-2.72l-1.71,1.03c1.46,2.43,3.15,3.67,5.03,3.689h0.029c2.87,0,4.98-2.97,5.381-3.57  c0.029-0.05,0.05-0.09,0.06-0.1L59.15,54.88z M45.4,50.19c-3.17-0.04-5.38,3.52-5.48,3.67l1.7,1.06c0.48-0.76,2.08-2.729,3.75-2.729  c0,0,0.01,0,0.02,0c1.129,0.01,2.24,0.93,3.32,2.71l1.71-1.03C48.96,51.45,47.27,50.21,45.4,50.19z M39.92,53.86  c-0.01,0.029-1.72,2.72-3.75,2.729c-1.13-0.01-2.25-0.92-3.33-2.72l-1.71,1.03h-0.01c0,0.01,0.01,0.01,0.01,0.02  c1.47,2.42,3.16,3.65,5.03,3.67c0.01,0,0.01,0,0.02,0c3.13,0,5.35-3.52,5.44-3.67L39.92,53.86z M49.73,2.71v2.55h0.75V2.71H49.73z   M47.11,2.71v2.55h0.75V2.71H47.11z M44.69,2.71v2.55h0.75V2.71H44.69z M42.24,2.71v2.55h0.75V2.71H42.24z M39.62,2.71v2.55h0.75  V2.71H39.62z M49.73,2.71v2.55h0.75V2.71H49.73z M47.11,2.71v2.55h0.75V2.71H47.11z M44.69,2.71v2.55h0.75V2.71H44.69z M42.24,2.71  v2.55h0.75V2.71H42.24z M39.62,2.71v2.55h0.75V2.71H39.62z M61.15,74.49V52.37c0-0.39-0.23-0.74-0.58-0.91  c-0.351-0.16-0.761-0.11-1.061,0.14c-1.21,1-1.97,2.21-2,2.261c-0.02,0.029-1.729,2.72-3.76,2.729c-1.13-0.01-2.25-0.92-3.33-2.72  c-1.46-2.42-3.15-3.66-5.02-3.68c-3.17-0.04-5.38,3.52-5.48,3.67c-0.01,0.029-1.72,2.72-3.75,2.729c-1.13-0.01-2.25-0.92-3.33-2.72  c-0.64-1.07-1.34-1.92-2.07-2.521c-0.3-0.25-0.72-0.3-1.07-0.13c-0.35,0.16-0.57,0.521-0.57,0.9v22.34  c-0.01,0.14-0.16,3.54,2.1,5.94c1.4,1.47,3.37,2.22,5.87,2.22h15.15c2.85,0,5.09-0.82,6.66-2.43  C61.22,77.81,61.15,74.59,61.15,74.49z M57.47,78.79c-1.18,1.21-2.93,1.83-5.22,1.83H37.1c-1.92,0-3.4-0.54-4.41-1.59  c-1.67-1.75-1.56-4.44-1.56-4.521V54.92c1.47,2.42,3.16,3.65,5.03,3.67c0.01,0,0.01,0,0.02,0c3.13,0,5.35-3.52,5.44-3.67  c0.48-0.76,2.08-2.729,3.75-2.729c0,0,0.01,0,0.02,0c1.129,0.01,2.24,0.93,3.32,2.71c1.46,2.43,3.15,3.67,5.03,3.689h0.029  c2.87,0,4.98-2.97,5.381-3.57v19.49C59.15,74.54,59.2,77.02,57.47,78.79z M61.15,74.49V52.37c0-0.39-0.23-0.74-0.58-0.91  c-0.351-0.16-0.761-0.11-1.061,0.14c-1.21,1-1.97,2.21-2,2.261c-0.02,0.029-1.729,2.72-3.76,2.729c-1.13-0.01-2.25-0.92-3.33-2.72  c-1.46-2.42-3.15-3.66-5.02-3.68c-3.17-0.04-5.38,3.52-5.48,3.67c-0.01,0.029-1.72,2.72-3.75,2.729c-1.13-0.01-2.25-0.92-3.33-2.72  c-0.64-1.07-1.34-1.92-2.07-2.521c-0.3-0.25-0.72-0.3-1.07-0.13c-0.35,0.16-0.57,0.521-0.57,0.9v22.34  c-0.01,0.14-0.16,3.54,2.1,5.94c1.4,1.47,3.37,2.22,5.87,2.22h15.15c2.85,0,5.09-0.82,6.66-2.43  C61.22,77.81,61.15,74.59,61.15,74.49z M57.47,78.79c-1.18,1.21-2.93,1.83-5.22,1.83H37.1c-1.92,0-3.4-0.54-4.41-1.59  c-1.67-1.75-1.56-4.44-1.56-4.521V54.92c1.47,2.42,3.16,3.65,5.03,3.67c0.01,0,0.01,0,0.02,0c3.13,0,5.35-3.52,5.44-3.67  c0.48-0.76,2.08-2.729,3.75-2.729c0,0,0.01,0,0.02,0c1.129,0.01,2.24,0.93,3.32,2.71c1.46,2.43,3.15,3.67,5.03,3.689h0.029  c2.87,0,4.98-2.97,5.381-3.57v19.49C59.15,74.54,59.2,77.02,57.47,78.79z M61.15,74.49V52.37c0-0.39-0.23-0.74-0.58-0.91  c-0.351-0.16-0.761-0.11-1.061,0.14c-1.21,1-1.97,2.21-2,2.261c-0.02,0.029-1.729,2.72-3.76,2.729c-1.13-0.01-2.25-0.92-3.33-2.72  c-1.46-2.42-3.15-3.66-5.02-3.68c-3.17-0.04-5.38,3.52-5.48,3.67c-0.01,0.029-1.72,2.72-3.75,2.729c-1.13-0.01-2.25-0.92-3.33-2.72  c-0.64-1.07-1.34-1.92-2.07-2.521c-0.3-0.25-0.72-0.3-1.07-0.13c-0.35,0.16-0.57,0.521-0.57,0.9v22.34  c-0.01,0.14-0.16,3.54,2.1,5.94c1.4,1.47,3.37,2.22,5.87,2.22h15.15c2.85,0,5.09-0.82,6.66-2.43  C61.22,77.81,61.15,74.59,61.15,74.49z M57.47,78.79c-1.18,1.21-2.93,1.83-5.22,1.83H37.1c-1.92,0-3.4-0.54-4.41-1.59  c-1.67-1.75-1.56-4.44-1.56-4.521V54.92c1.47,2.42,3.16,3.65,5.03,3.67c0.01,0,0.01,0,0.02,0c3.13,0,5.35-3.52,5.44-3.67  c0.48-0.76,2.08-2.729,3.75-2.729c0,0,0.01,0,0.02,0c1.129,0.01,2.24,0.93,3.32,2.71c1.46,2.43,3.15,3.67,5.03,3.689h0.029  c2.87,0,4.98-2.97,5.381-3.57v19.49C59.15,74.54,59.2,77.02,57.47,78.79z M61.15,74.49V52.37c0-0.39-0.23-0.74-0.58-0.91  c-0.351-0.16-0.761-0.11-1.061,0.14c-1.21,1-1.97,2.21-2,2.261c-0.02,0.029-1.729,2.72-3.76,2.729c-1.13-0.01-2.25-0.92-3.33-2.72  c-1.46-2.42-3.15-3.66-5.02-3.68c-3.17-0.04-5.38,3.52-5.48,3.67c-0.01,0.029-1.72,2.72-3.75,2.729c-1.13-0.01-2.25-0.92-3.33-2.72  c-0.64-1.07-1.34-1.92-2.07-2.521c-0.3-0.25-0.72-0.3-1.07-0.13c-0.35,0.16-0.57,0.521-0.57,0.9v22.34  c-0.01,0.14-0.16,3.54,2.1,5.94c1.4,1.47,3.37,2.22,5.87,2.22h15.15c2.85,0,5.09-0.82,6.66-2.43  C61.22,77.81,61.15,74.59,61.15,74.49z M57.47,78.79c-1.18,1.21-2.93,1.83-5.22,1.83H37.1c-1.92,0-3.4-0.54-4.41-1.59  c-1.67-1.75-1.56-4.44-1.56-4.521V54.92c1.47,2.42,3.16,3.65,5.03,3.67c0.01,0,0.01,0,0.02,0c3.13,0,5.35-3.52,5.44-3.67  c0.48-0.76,2.08-2.729,3.75-2.729c0,0,0.01,0,0.02,0c1.129,0.01,2.24,0.93,3.32,2.71c1.46,2.43,3.15,3.67,5.03,3.689h0.029  c2.87,0,4.98-2.97,5.381-3.57v19.49C59.15,74.54,59.2,77.02,57.47,78.79z M61.15,74.49V52.37c0-0.39-0.23-0.74-0.58-0.91  c-0.351-0.16-0.761-0.11-1.061,0.14c-1.21,1-1.97,2.21-2,2.261c-0.02,0.029-1.729,2.72-3.76,2.729c-1.13-0.01-2.25-0.92-3.33-2.72  c-1.46-2.42-3.15-3.66-5.02-3.68c-3.17-0.04-5.38,3.52-5.48,3.67c-0.01,0.029-1.72,2.72-3.75,2.729c-1.13-0.01-2.25-0.92-3.33-2.72  c-0.64-1.07-1.34-1.92-2.07-2.521c-0.3-0.25-0.72-0.3-1.07-0.13c-0.35,0.16-0.57,0.521-0.57,0.9v22.34  c-0.01,0.14-0.16,3.54,2.1,5.94c1.4,1.47,3.37,2.22,5.87,2.22h15.15c2.85,0,5.09-0.82,6.66-2.43  C61.22,77.81,61.15,74.59,61.15,74.49z M57.47,78.79c-1.18,1.21-2.93,1.83-5.22,1.83H37.1c-1.92,0-3.4-0.54-4.41-1.59  c-1.67-1.75-1.56-4.44-1.56-4.521V54.92c1.47,2.42,3.16,3.65,5.03,3.67c0.01,0,0.01,0,0.02,0c3.13,0,5.35-3.52,5.44-3.67  c0.48-0.76,2.08-2.729,3.75-2.729c0,0,0.01,0,0.02,0c1.129,0.01,2.24,0.93,3.32,2.71c1.46,2.43,3.15,3.67,5.03,3.689h0.029  c2.87,0,4.98-2.97,5.381-3.57v19.49C59.15,74.54,59.2,77.02,57.47,78.79z M54.27,22.03c-0.989-0.47-3.85-2.21-3.85-3.94v-2.32  c0.061-0.19,0.44-1.16,2.89-1.16c0.551,0,1-0.44,1-1v-3.32c0-0.55-0.449-1-1-1h-16.5c-0.55,0-1,0.45-1,1v3.32c0,0.56,0.45,1,1,1  c2.52,0,2.86,1.02,2.89,1.14v2.34c0,1.72-2.85,3.46-3.88,3.95C25.2,27.57,24.38,46.6,24.35,47.44V75.5  c0,7.25,6.16,13.14,13.73,13.14h13.97c7.57,0,13.72-5.89,13.72-13.14V47.4C65.74,46.6,64.92,27.57,54.27,22.03z M63.77,75.5  c0,6.15-5.26,11.14-11.72,11.14H38.08c-6.47,0-11.73-4.989-11.73-11.14V47.48c0.01-0.19,0.81-18.67,10.36-23.641  c0.51-0.25,4.99-2.46,4.99-5.75v-2.42c0-0.09-0.01-0.17-0.03-0.25c-0.12-0.6-0.75-2.43-3.86-2.76v-1.37h14.5v1.37  c-3.27,0.35-3.79,2.35-3.869,2.84c-0.011,0.06-0.021,0.12-0.021,0.18v2.41c0,3.29,4.49,5.5,4.96,5.73  c9.58,4.99,10.39,23.47,10.39,23.621V75.5z M53.75,56.59c-1.13-0.01-2.25-0.92-3.33-2.72c-1.46-2.42-3.15-3.66-5.02-3.68  c-3.17-0.04-5.38,3.52-5.48,3.67c-0.01,0.029-1.72,2.72-3.75,2.729c-1.13-0.01-2.25-0.92-3.33-2.72c-0.64-1.07-1.34-1.92-2.07-2.521  c-0.3-0.25-0.72-0.3-1.07-0.13c-0.35,0.16-0.57,0.521-0.57,0.9v22.34c-0.01,0.14-0.16,3.54,2.1,5.94c1.4,1.47,3.37,2.22,5.87,2.22  h15.15c2.85,0,5.09-0.82,6.66-2.43c2.31-2.381,2.24-5.601,2.24-5.7V52.37c0-0.39-0.23-0.74-0.58-0.91  c-0.351-0.16-0.761-0.11-1.061,0.14c-1.21,1-1.97,2.21-2,2.261C57.49,53.89,55.78,56.58,53.75,56.59z M59.15,55.02v19.49  c0,0.03,0.05,2.51-1.681,4.28c-1.18,1.21-2.93,1.83-5.22,1.83H37.1c-1.92,0-3.4-0.54-4.41-1.59c-1.67-1.75-1.56-4.44-1.56-4.521  V54.92c1.47,2.42,3.16,3.65,5.03,3.67c0.01,0,0.01,0,0.02,0c3.13,0,5.35-3.52,5.44-3.67c0.48-0.76,2.08-2.729,3.75-2.729  c0,0,0.01,0,0.02,0c1.129,0.01,2.24,0.93,3.32,2.71c1.46,2.43,3.15,3.67,5.03,3.689h0.029C56.64,58.59,58.75,55.62,59.15,55.02z   M61.15,74.49V52.37c0-0.39-0.23-0.74-0.58-0.91c-0.351-0.16-0.761-0.11-1.061,0.14c-1.21,1-1.97,2.21-2,2.261  c-0.02,0.029-1.729,2.72-3.76,2.729c-1.13-0.01-2.25-0.92-3.33-2.72c-1.46-2.42-3.15-3.66-5.02-3.68c-3.17-0.04-5.38,3.52-5.48,3.67  c-0.01,0.029-1.72,2.72-3.75,2.729c-1.13-0.01-2.25-0.92-3.33-2.72c-0.64-1.07-1.34-1.92-2.07-2.521c-0.3-0.25-0.72-0.3-1.07-0.13  c-0.35,0.16-0.57,0.521-0.57,0.9v22.34c-0.01,0.14-0.16,3.54,2.1,5.94c1.4,1.47,3.37,2.22,5.87,2.22h15.15  c2.85,0,5.09-0.82,6.66-2.43C61.22,77.81,61.15,74.59,61.15,74.49z M57.47,78.79c-1.18,1.21-2.93,1.83-5.22,1.83H37.1  c-1.92,0-3.4-0.54-4.41-1.59c-1.67-1.75-1.56-4.44-1.56-4.521V54.92c1.47,2.42,3.16,3.65,5.03,3.67c0.01,0,0.01,0,0.02,0  c3.13,0,5.35-3.52,5.44-3.67c0.48-0.76,2.08-2.729,3.75-2.729c0,0,0.01,0,0.02,0c1.129,0.01,2.24,0.93,3.32,2.71  c1.46,2.43,3.15,3.67,5.03,3.689h0.029c2.87,0,4.98-2.97,5.381-3.57v19.49C59.15,74.54,59.2,77.02,57.47,78.79z M61.15,74.49V52.37  c0-0.39-0.23-0.74-0.58-0.91c-0.351-0.16-0.761-0.11-1.061,0.14c-1.21,1-1.97,2.21-2,2.261c-0.02,0.029-1.729,2.72-3.76,2.729  c-1.13-0.01-2.25-0.92-3.33-2.72c-1.46-2.42-3.15-3.66-5.02-3.68c-3.17-0.04-5.38,3.52-5.48,3.67c-0.01,0.029-1.72,2.72-3.75,2.729  c-1.13-0.01-2.25-0.92-3.33-2.72c-0.64-1.07-1.34-1.92-2.07-2.521c-0.3-0.25-0.72-0.3-1.07-0.13c-0.35,0.16-0.57,0.521-0.57,0.9  v22.34c-0.01,0.14-0.16,3.54,2.1,5.94c1.4,1.47,3.37,2.22,5.87,2.22h15.15c2.85,0,5.09-0.82,6.66-2.43  C61.22,77.81,61.15,74.59,61.15,74.49z M57.47,78.79c-1.18,1.21-2.93,1.83-5.22,1.83H37.1c-1.92,0-3.4-0.54-4.41-1.59  c-1.67-1.75-1.56-4.44-1.56-4.521V54.92c1.47,2.42,3.16,3.65,5.03,3.67c0.01,0,0.01,0,0.02,0c3.13,0,5.35-3.52,5.44-3.67  c0.48-0.76,2.08-2.729,3.75-2.729c0,0,0.01,0,0.02,0c1.129,0.01,2.24,0.93,3.32,2.71c1.46,2.43,3.15,3.67,5.03,3.689h0.029  c2.87,0,4.98-2.97,5.381-3.57v19.49C59.15,74.54,59.2,77.02,57.47,78.79z M61.15,74.49V52.37c0-0.39-0.23-0.74-0.58-0.91  c-0.351-0.16-0.761-0.11-1.061,0.14c-1.21,1-1.97,2.21-2,2.261c-0.02,0.029-1.729,2.72-3.76,2.729c-1.13-0.01-2.25-0.92-3.33-2.72  c-1.46-2.42-3.15-3.66-5.02-3.68c-3.17-0.04-5.38,3.52-5.48,3.67c-0.01,0.029-1.72,2.72-3.75,2.729c-1.13-0.01-2.25-0.92-3.33-2.72  c-0.64-1.07-1.34-1.92-2.07-2.521c-0.3-0.25-0.72-0.3-1.07-0.13c-0.35,0.16-0.57,0.521-0.57,0.9v22.34  c-0.01,0.14-0.16,3.54,2.1,5.94c1.4,1.47,3.37,2.22,5.87,2.22h15.15c2.85,0,5.09-0.82,6.66-2.43  C61.22,77.81,61.15,74.59,61.15,74.49z M57.47,78.79c-1.18,1.21-2.93,1.83-5.22,1.83H37.1c-1.92,0-3.4-0.54-4.41-1.59  c-1.67-1.75-1.56-4.44-1.56-4.521V54.92c1.47,2.42,3.16,3.65,5.03,3.67c0.01,0,0.01,0,0.02,0c3.13,0,5.35-3.52,5.44-3.67  c0.48-0.76,2.08-2.729,3.75-2.729c0,0,0.01,0,0.02,0c1.129,0.01,2.24,0.93,3.32,2.71c1.46,2.43,3.15,3.67,5.03,3.689h0.029  c2.87,0,4.98-2.97,5.381-3.57v19.49C59.15,74.54,59.2,77.02,57.47,78.79z M61.15,74.49V52.37c0-0.39-0.23-0.74-0.58-0.91  c-0.351-0.16-0.761-0.11-1.061,0.14c-1.21,1-1.97,2.21-2,2.261c-0.02,0.029-1.729,2.72-3.76,2.729c-1.13-0.01-2.25-0.92-3.33-2.72  c-1.46-2.42-3.15-3.66-5.02-3.68c-3.17-0.04-5.38,3.52-5.48,3.67c-0.01,0.029-1.72,2.72-3.75,2.729c-1.13-0.01-2.25-0.92-3.33-2.72  c-0.64-1.07-1.34-1.92-2.07-2.521c-0.3-0.25-0.72-0.3-1.07-0.13c-0.35,0.16-0.57,0.521-0.57,0.9v22.34  c-0.01,0.14-0.16,3.54,2.1,5.94c1.4,1.47,3.37,2.22,5.87,2.22h15.15c2.85,0,5.09-0.82,6.66-2.43  C61.22,77.81,61.15,74.59,61.15,74.49z M57.47,78.79c-1.18,1.21-2.93,1.83-5.22,1.83H37.1c-1.92,0-3.4-0.54-4.41-1.59  c-1.67-1.75-1.56-4.44-1.56-4.521V54.92c1.47,2.42,3.16,3.65,5.03,3.67c0.01,0,0.01,0,0.02,0c3.13,0,5.35-3.52,5.44-3.67  c0.48-0.76,2.08-2.729,3.75-2.729c0,0,0.01,0,0.02,0c1.129,0.01,2.24,0.93,3.32,2.71c1.46,2.43,3.15,3.67,5.03,3.689h0.029  c2.87,0,4.98-2.97,5.381-3.57v19.49C59.15,74.54,59.2,77.02,57.47,78.79z M47.11,2.71v2.55h0.75V2.71H47.11z M49.73,2.71v2.55h0.75  V2.71H49.73z M39.62,2.71v2.55h0.75V2.71H39.62z M42.24,2.71v2.55h0.75V2.71H42.24z M44.69,2.71v2.55h0.75V2.71H44.69z M53.28,0.71  H36.86c-0.55,0-1,0.45-1,1v4.55c0,0.56,0.45,1,1,1h16.42c0.55,0,1-0.44,1-1V1.71C54.28,1.16,53.83,0.71,53.28,0.71z M52.28,5.26  H37.86V2.71h14.42V5.26z"/><text x="0" y="105" fill="#000000" font-size="5px" font-weight="bold" font-family="'Helvetica Neue', Helvetica, Arial-Unicode, Arial, Sans-serif">Created by Katie Wright</text><text x="0" y="110" fill="#000000" font-size="5px" font-weight="bold" font-family="'Helvetica Neue', Helvetica, Arial-Unicode, Arial, Sans-serif">from the Noun Project</text></svg>